<svg height="512pt" viewBox="0 -61 512.00013 512" width="512pt" xmlns="http://www.w3.org/2000/svg"><path d="m99.003906 344.074219c31.761719 30.316406 75.492188 47.277343 119.367188 46.5 44.648437-.804688 86.636718-18.644531 118.230468-50.238281l102.867188-102.867188c2.929688-2.929688 2.929688-7.683594 0-10.609375-2.933594-2.933594-7.683594-2.933594-10.613281 0l-102.867188 102.863281c-28.832031 28.832032-67.148437 45.117188-107.886719 45.851563-40.851562.734375-79.464843-14.296875-108.714843-42.328125-30.25-28.984375-48.273438-69.210938-49.402344-111.117188-.109375-4.140625-3.558594-7.40625-7.699219-7.296875-4.144531.113281-7.410156 3.558594-7.300781 7.703125 1.230469 45.601563 21.023437 90.042969 54.019531 121.539063zm0 0"/><path d="m13.84375 81.617188 52.695312 52.695312c-9.855468 17.628906-16.429687 36.761719-19.570312 56.953125-.632812 4.09375 2.167969 7.929687 6.265625 8.566406 4.09375.636719 7.929687-2.167969 8.5625-6.261719 3.140625-20.214843 10.054687-39.253906 20.550781-56.589843 1.789063-2.957031 1.332032-6.75-1.109375-9.191407 0 0-56.722656-56.722656-56.78125-56.78125-12.699219-12.699218-12.679687-33.871093 0-46.550781 12.691407-12.695312 33.871094-12.679687 46.550781 0l51.886719 51.882813c-14.242187 19.519531-11.226562 47.53125 6.625 63.707031 11.191407 10.140625 27.304688 14.453125 42.078125 11.355469.144532-.027344.289063-.050782.433594-.082032-.738281 3.363282-1.117188 6.832032-1.117188 10.355469 0 11.125 3.769532 21.671875 10.699219 30.183594.023438.027344.039063.050781.058594.074219 11.359375 13.851562 30.066406 20.375 47.558594 16.527344-.035157.152343-.058594.308593-.089844.464843-3.296875 15.71875 1.617187 32.441407 12.972656 43.800781.019531.019532.042969.039063.0625.058594 17.199219 16.988282 45.21875 18.582032 64.019531 3.269532 1.277344-1.039063 134.503907-134.140626 134.605469-134.242188 12.703125-12.703125 33.859375-12.691406 46.554688 0 12.832031 12.832031 12.832031 33.714844 0 46.550781l-37.453125 37.453125c-2.929688 2.929688-2.929688 7.679688 0 10.609375 2.929687 2.929688 7.679687 2.929688 10.609375 0l37.453125-37.453125c9.050781-9.050781 14.035156-21.085937 14.035156-33.886718 0-12.800782-4.984375-24.832032-14.035156-33.886719-18.472656-18.472657-49.324219-18.449219-67.773438 0l-49.539062 49.542969c-.324219-11.832032-4.976563-23.5625-13.984375-32.570313-9.050781-9.050781-21.085938-14.035156-33.886719-14.035156-.304688 0-.605469.015625-.90625.019531 10.65625-18.335938 8.148438-42.285156-7.542969-57.972656-15.160156-15.164063-39.4375-18.371094-57.972656-7.554688.003906-.300781.019531-.597656.019531-.898437 0-12.796875-4.984375-24.832031-14.035156-33.882813-18.472656-18.476562-49.328125-18.449218-67.773438 0l-51.476562 51.476563s-51.441406-51.445313-51.476562-51.476563c-18.46875-18.46875-49.324219-18.449218-67.773438 0-18.46875 18.464844-18.449219 49.316406 0 67.769532zm342.214844 57.160156c12.832031 12.835937 12.832031 33.71875 0 46.550781-.007813.011719-.019532.019531-.027344.027344l-56.753906 56.757812c-6.21875 6.214844-14.484375 9.640625-23.277344 9.640625s-17.058594-3.425781-23.277344-9.640625c-10.121094-10.121093-12.492187-26.15625-5.753906-38.789062 1.488281-2.789063 3.402344-5.414063 5.753906-7.765625l56.78125-56.78125c6.21875-6.214844 14.484375-9.640625 23.277344-9.640625s17.058594 3.425781 23.277344 9.640625zm-65.613282-81.496094c8.472657 0 16.941407 3.171875 23.277344 9.507812 12.671875 12.671876 12.652344 33.898438 0 46.550782l-71.609375 71.609375c-12.453125 12.445312-34.363281 12.5-46.71875-.175781-12.285156-12.453126-12.351562-34.015626.167969-46.375 0 0 71.574219-71.574219 71.605469-71.609376 6.34375-6.339843 14.8125-9.507812 23.277343-9.507812zm-95.265624-32.828125c12.710937-12.710937 33.847656-12.703125 46.550781 0 12.625 12.617187 12.589843 33.964844.003906 46.550781 0 0-56.773437 56.773438-56.78125 56.78125-12.667969 12.667969-33.878906 12.671875-46.554687 0-12.578126-12.582031-12.59375-33.957031 0-46.550781 0 0 56.710937-56.710937 56.78125-56.78125zm0 0"/></svg>