<svg xmlns="http://www.w3.org/2000/svg" width="15.2" height="15.2" viewBox="0 0 15.2 15.2">
  <g id="Icon_feather-image" data-name="Icon feather-image" transform="translate(-4 -4)">
    <path id="Pfad_28" data-name="Pfad 28" d="M6.055,4.5H16.938a1.555,1.555,0,0,1,1.555,1.555V16.938a1.555,1.555,0,0,1-1.555,1.555H6.055A1.555,1.555,0,0,1,4.5,16.938V6.055A1.555,1.555,0,0,1,6.055,4.5Z" fill="none" stroke="#000" stroke-linecap="round" stroke-linejoin="round" stroke-width="1"/>
    <path id="Pfad_29" data-name="Pfad 29" d="M12.832,11.666A1.166,1.166,0,1,1,11.666,10.5,1.166,1.166,0,0,1,12.832,11.666Z" transform="translate(-2.891 -2.891)" fill="none" stroke="#000" stroke-linecap="round" stroke-linejoin="round" stroke-width="1"/>
    <path id="Pfad_30" data-name="Pfad 30" d="M19.938,18.887,16.051,15,7.5,23.551" transform="translate(-1.445 -5.058)" fill="none" stroke="#000" stroke-linecap="round" stroke-linejoin="round" stroke-width="1"/>
  </g>
</svg>
