<svg xmlns="http://www.w3.org/2000/svg" width="15.938" height="13.242" viewBox="0 0 15.938 13.242">
  <g id="Icon_feather-users" data-name="Icon feather-users" transform="translate(-1 -3.98)">
    <path id="Pfad_24" data-name="Pfad 24" d="M12.364,26.574V25.216A2.716,2.716,0,0,0,9.648,22.5H4.216A2.716,2.716,0,0,0,1.5,25.216v1.358" transform="translate(0 -9.852)" fill="none" stroke="#000" stroke-linecap="round" stroke-linejoin="round" stroke-width="1"/>
    <path id="Pfad_25" data-name="Pfad 25" d="M12.932,7.216A2.716,2.716,0,1,1,10.216,4.5a2.716,2.716,0,0,1,2.716,2.716Z" transform="translate(-3.284 0)" fill="none" stroke="#000" stroke-linecap="round" stroke-linejoin="round" stroke-width="1"/>
    <path id="Pfad_26" data-name="Pfad 26" d="M32.037,26.681V25.323A2.716,2.716,0,0,0,30,22.7" transform="translate(-15.599 -9.959)" fill="none" stroke="#000" stroke-linecap="round" stroke-linejoin="round" stroke-width="1"/>
    <path id="Pfad_27" data-name="Pfad 27" d="M24,4.695a2.716,2.716,0,0,1,0,5.262" transform="translate(-12.315 -0.107)" fill="none" stroke="#000" stroke-linecap="round" stroke-linejoin="round" stroke-width="1"/>
  </g>
</svg>
