<svg id="Gruppe_24" data-name="Gruppe 24" xmlns="http://www.w3.org/2000/svg" width="16.65" height="14.449" viewBox="0 0 16.65 14.449">
  <path id="Pfad_19" data-name="Pfad 19" d="M16.425,32.394a.612.612,0,0,0-.635-.085L.6,38.936A.993.993,0,0,0,.7,40.8l3.747,1.133a.613.613,0,0,0,.355-1.174L1.67,39.806l11.872-5.177-7,6.989s-.007.01-.014.014l-.027.027a.1.1,0,0,0-.017.024c0,.007-.01.014-.014.02a.011.011,0,0,0,0,.007c-.007.007-.01.017-.017.024s-.01.02-.017.031-.007.017-.01.024-.01.024-.017.034a.048.048,0,0,0-.007.02c0,.014-.01.024-.014.038s0,.014-.007.02l-.01.041c0,.007,0,.014,0,.02a.166.166,0,0,0,0,.041v.078l.184,3.5a.946.946,0,0,0,1.648.584l1.4-1.549,2.764,1.914a.989.989,0,0,0,.935.106.988.988,0,0,0,.6-.717L16.637,33A.617.617,0,0,0,16.425,32.394ZM7.737,44.842l-.082-1.573.925.642Zm5.033.474L7.928,41.962l7.04-7.026Z" transform="translate(0 -32.257)" fill="#0b3d39"/>
</svg>
