<svg xmlns="http://www.w3.org/2000/svg" width="7.061" height="16.74" viewBox="0 0 7.061 16.74">
  <g id="Gruppe_16" data-name="Gruppe 16" transform="translate(-926.307 -631.85)">
    <g id="Gruppe_15" data-name="Gruppe 15">
      <path id="Pfad_13" data-name="Pfad 13" d="M928.114,640.792a.245.245,0,0,0,.245-.245v-6.729a1.478,1.478,0,0,1,2.956,0v.988a.246.246,0,0,0,.491,0v-.988a1.969,1.969,0,0,0-3.937,0v6.729A.245.245,0,0,0,928.114,640.792Z" fill="#0b3d39"/>
      <path id="Pfad_14" data-name="Pfad 14" d="M932.045,642.3a.626.626,0,0,1-.239-.489v-6.029a.246.246,0,1,0-.491,0v6.029a1.111,1.111,0,0,0,.423.871,3.039,3.039,0,1,1-3.8,0,1.107,1.107,0,0,0,.42-.869v-.289a.245.245,0,0,0-.49,0v.289a.624.624,0,0,1-.236.487,3.532,3.532,0,0,0,2.154,6.286h.051a3.53,3.53,0,0,0,2.207-6.285Z" fill="#0b3d39"/>
      <path id="Pfad_15" data-name="Pfad 15" d="M930.477,633.154a.915.915,0,0,0-.675-.257.928.928,0,0,0-.887.938v8.529a.616.616,0,0,1-.294.527l-.086.053a2.469,2.469,0,0,0-1.181,2.139,2.5,2.5,0,0,0,2.448,2.46h.036a2.482,2.482,0,0,0,2.48-2.354,2.491,2.491,0,0,0-1.178-2.245l-.087-.053a.616.616,0,0,1-.293-.527v-8.546a.918.918,0,0,0-.283-.664Zm-.656.233h.016a.43.43,0,0,1,.432.431v1.051h-.863v-1.034a.444.444,0,0,1,.415-.448Zm.975,9.921.086.054a1.97,1.97,0,0,1,.946,1.8,1.992,1.992,0,0,1-1.99,1.889h-.029a2,2,0,0,1-1.965-1.974,1.98,1.98,0,0,1,.949-1.717l.086-.054a1.1,1.1,0,0,0,.527-.944v-7h.863v.542h-.186a.245.245,0,1,0,0,.49h.186v.687h-.186a.245.245,0,1,0,0,.49h.186v.686h-.186a.245.245,0,1,0,0,.491h.186v.686h-.186a.245.245,0,1,0,0,.491h.186v.686h-.186a.245.245,0,1,0,0,.49h.186v1.265A1.1,1.1,0,0,0,930.8,643.308Z" fill="#0b3d39"/>
    </g>
  </g>
</svg>
