<svg xmlns="http://www.w3.org/2000/svg" width="16.024" height="14.77" viewBox="0 0 16.024 14.77">
  <g id="Gruppe_13" data-name="Gruppe 13" transform="translate(-868.893 -633.163)">
    <g id="Gruppe_12" data-name="Gruppe 12">
      <g id="Gruppe_9" data-name="Gruppe 9">
        <g id="Gruppe_8" data-name="Gruppe 8">
          <path id="Pfad_9" data-name="Pfad 9" d="M883.57,645.524H884.6a.313.313,0,0,0,0-.626H883.57a2.911,2.911,0,0,1-2.908-2.908.908.908,0,0,1,1.816,0,.313.313,0,0,0,.608.1,2.874,2.874,0,0,0-.672-2.981,3.472,3.472,0,0,0-.963-.683.313.313,0,1,0-.27.565,2.839,2.839,0,0,1,.79.56,2.241,2.241,0,0,1,.636,1.3,1.534,1.534,0,0,0-2.571,1.129,3.538,3.538,0,0,0,3.534,3.534Z" fill="#0b3d39"/>
          <path id="Pfad_10" data-name="Pfad 10" d="M870.5,644.9h-1.293a.313.313,0,0,0,0,.626H870.5a6.965,6.965,0,0,0,5.732-3.008,4.272,4.272,0,0,0,1.239,2.667.313.313,0,1,0,.442-.443,3.67,3.67,0,0,1,0-5.184,2.857,2.857,0,0,1,.791-.56.313.313,0,1,0-.27-.565,3.473,3.473,0,0,0-.963.683,4.289,4.289,0,0,0-.684.891,3.155,3.155,0,0,1-1.415-2.643,1.01,1.01,0,1,1,2.019,0,.313.313,0,0,0,.608.1,3.087,3.087,0,0,0-.722-3.2,3.761,3.761,0,0,0-5.318,0,4.6,4.6,0,0,0-1.121,1.813A6.929,6.929,0,0,1,869,638.77a.313.313,0,0,0,.419.465,7.551,7.551,0,0,0,1.2-1.381,4.587,4.587,0,0,0,1.343,2.947.312.312,0,0,0,.221.092.314.314,0,0,0,.222-.535,3.994,3.994,0,0,1,0-5.651,3.131,3.131,0,0,1,4.432,0,2.446,2.446,0,0,1,.7,1.5,1.635,1.635,0,0,0-2.792,1.155,3.8,3.8,0,0,0,1.768,3.212c-.026.065-.049.13-.071.2a6.365,6.365,0,0,1-5.943,4.13Z" fill="#0b3d39"/>
          <path id="Pfad_11" data-name="Pfad 11" d="M884.824,646.944a.313.313,0,0,0-.442,0,1.243,1.243,0,0,1-1.757,0,1.872,1.872,0,0,0-2.643,0,1.243,1.243,0,0,1-1.757,0,1.869,1.869,0,0,0-2.642,0,1.243,1.243,0,0,1-1.757,0,1.869,1.869,0,0,0-2.642,0,1.243,1.243,0,0,1-1.757,0,.313.313,0,0,0-.443.443,1.871,1.871,0,0,0,2.642,0,1.242,1.242,0,0,1,1.757,0,1.872,1.872,0,0,0,2.643,0,1.242,1.242,0,0,1,1.757,0,1.871,1.871,0,0,0,2.642,0,1.244,1.244,0,0,1,1.757,0,1.871,1.871,0,0,0,2.642,0,.312.312,0,0,0,0-.443Z" fill="#0b3d39"/>
        </g>
      </g>
      <g id="Gruppe_11" data-name="Gruppe 11">
        <g id="Gruppe_10" data-name="Gruppe 10">
          <path id="Pfad_12" data-name="Pfad 12" d="M879.942,638.716a.316.316,0,0,1-.221-.092.313.313,0,0,1,.221-.534.313.313,0,0,1,0,.626Z" fill="#0b3d39"/>
        </g>
      </g>
    </g>
  </g>
</svg>
