<svg xmlns="http://www.w3.org/2000/svg" width="867.986" height="765.998" viewBox="0 0 867.986 765.998">
  <g id="Gruppe_187" data-name="Gruppe 187" transform="translate(-498.015 -0.001)">
    <path id="Schnittmenge_3" data-name="Schnittmenge 3" d="M8163.266,1919.095l6.855-4.329,7.819-4.948,7.813-4.956,7.818-4.973,7.824-4.981,7.818-4.994,7.865,1.9,7.474,1.8,7.461,1.8-.044-.025-7.518-1.814-7.474-1.8-7.868-1.9-.022-.047-7.818,4.992-7.824,4.981-7.818,4.975-7.816,4.951-7.816,4.951-7,4.42H8031.391l-2.809-1.965-4.948-3.481-4.948-3.481-4.945-3.481-4.942-3.481-4.942-3.481-4.948-3.5-4.948-3.481-4.939-3.508-4.948-3.508-4.945-3.514-4.951-3.522-4.942-3.527-4.945-3.536-4.179-2.988-4.532-3.112h-26.727l0,.03h26.7l4.608,3.164,4.179,2.986,4.945,3.538,4.948,3.53,4.95,3.522,4.943,3.511,4.945,3.508,4.94,3.508,4.948,3.481,4.948,3.481,4.945,3.481,4.945,3.481,4.942,3.481,4.945,3.481,4.942,3.481,2.717,1.9H7831.6l-.137-2.113-.137-2.282-.134-2.148-.134-2.143-.126-1.992-.112-1.828-.2-1.043-.739-2.088-.156-1.045.2-1.1.493-1.045,1.349-1.891,2.044-1.459,2.356-1.686,1.8-1.286.922-.315,2.813-.446,2.217-.974,2.156-.947.906-.525.11-1.781v-40.062h50.346v-21.587l-.148-.1-.074-.049v-6.229h-.08v6.24l.153.038v21.682h-50.341v40.029l-.109,1.782-.9.525-2.159.947-2.217.974-2.816.446-.925.318-1.8,1.281-2.362,1.686-2.044,1.456-1.349,1.894-.493,1.045-.2,1.095.159,1.043.733,2.088.2,1.045.115,1.834.124,1.99.137,2.146.134,2.148.14,2.277.137,2.156h-59.252l.419-2.961,2.091-4.209,1.647-1.855,2.562-.961,2.351-4.239.826-3.913,1.541-1.8.484-1.393-.607-1.073,1.458-2.113,1.765-3.237.818-2.088,2.061-3.224.254-.72-.181-.8-.815.7-.865,1.193-1.045.944.416-1.155.81-1.7,1.833-1.787,2.9-1.962,6-6.686,2.261-1.158,2.031-2.822.728-2.515.2-5.777.722-3.057,1.327-2.381,1.579-4.354,1.2-1.94.789-3.979.854-1.513,1.538-.725,2.17-1.99,3.265-1.231,3.867-2.589,1.814-1.549,1.212-2.315,1.294-4.617,2.318-4.871,1.19-3.681h.15l.014-.038,2.042-1.935,1.393-2.436,2.348-1.095,4.907-.523,7.288-2.042,6.543-3.084,1.85-1.223,1.979-2.466,3.295-3.213,6.149-3.864,2.83-2.162,4.316-5.43,2.868-4.5,2.384-2.906,1.645-2.583,1.157-2.619.649-4.231-.436-1.656-1.817-2.712-1.212-.722-.328-1.284.651-2.258v-3.9l.364-6.24,2.022-5.055,4.945-6.645.922-2.739.564-4.357.046-1.543,6.19-6.22,3.621-4.784,1.256-1.171,3.194-2.189,11.16-4.8,6.305-3.434,3.678-2.507,2.2-2.975,6.075-11.724,5.966-16.655.5-1.94,2.668-.561,1.891-.244,1.521-.613,1.883-1.259,1.807.509-.9.857v2.063l1.281,2.414,2.228,2.715,4.044,3.437,3.153,1.393,4.5.829,5.252-1.508,2.939-.027,1.426-.651,1.557.952,2.953.307,2.854-.5,2.157-1.442,1.371-1.664.216.821.063.878.422.515.848,2.11.446.824,1.639-.137,1.428.413,3.216-.2,3,.345-.019-.06,3.054.345,1.576-.167,3.615-1.634,2.871-2.214,2.236-1.125,1.962-2.436,1.785-1.533,2.569-1.658,7.419-3.577,1.136-.027,2.436.813,2.124-.252,1.453-1.256,1.563-3.024,2.438-1.844,3.057-1.847,4.179-1.773L8043,1664.8l4.315-1.412,10.834-.9,5.569-.8,3.782.183,3.829-2.592,1.91-.857,8.273-.2,3.9-1.894h14.784l1.812.632,1.773,1.023,3.027,2.46,1.5.539,1.954-.512,4.523-2.329,5.121-1.212,2.786-1.393,1.182-2.025,2.4-.75,1.349,1.56,5.312,1.568,3.262-.452,1.429-.473-.517-2.329,3.448.619,2.646,1.125,2.786,2.25,1.8.446,3.273-1.013,6.836-.441.314,1,.055.92.005-.005-.055-.936-.32-1.007,3.727-1.133,3.552-2.98,1.25-.731,8.246-2.753,1.07.189,1.2.4-.348,1.045-.473.81.695,1.439,1-.878-.255-.588-.057-.78,1.694-.071,1.5.123,1.645.857-.112,3.246,2.194,3.169-.618,1.576,1.8.93,1.6-1.117.8-1.656,2.945-.955,2.786-2.438,1.549-.246.348,2,.747,1.74-1.045.616-1.341,1.85-2.557,4.68-2.351,1.374-1.762,1.8-.572,1.273-.175,1.486.443,2.657,1.286,2.693,1.486,1.625,1.429.509,3.33,2.559-.055,1.516.463,1.8.178,2.189,1.157,1.74-2.477,3.8-1.354,2.737-2.649,3.766-2.356,2.436-5.043,3.621-1.237,1.2-.81,1.242-.367,1.3.134,1.524,1.661,3.738,2.214,2.2,2.25,1.19,3.911-.479-.134,1.437.276,1.716,1.587-.085,1.067-.268.9-1.672,1.91,1.144,1,3.481,1.617,1.086.189.4-.572.268-.443.4.476.285,1.565.43.947-.274,1.606.8-.055.025-.033.474-.533,3.4-.115,1.22-.079,2.072v2.485l.008.016v-2.444l.08-2.066.12-1.221.53-3.4.03-.482,2.3,1.136,2.361.452,7.042,4.214,2.219.523,4.929.5,5.8-1.721,2.2-.312,3.828,1.62,1.686.454,2.827.12,4.836,1.464,1.234.512,2.818,2.334,1.35.7,10.011,2.14,1.368,1.412,1.393,2.693.058,3.35.771,2.436,1.243,3.134,1.5,2.217,1.664,1.844,1.91,1.152,4.39,1.7,4.948.651,5,.219,8.568,2.343,7.269,2.7,1.792,1.33,3.646,1.3,7.238,6.319,4.023,2.178,2.829.421,2.534-.383,4.5-2.187,1.86-1.3,4.524-5.451,1.491-2.852.591-2.02-.142-2.047-.567-1.845-1.27-1.935-.887-2.564-.525-4.62.7-3.216.867-1.927,1.368-1.968,3.758-3.774,3.782-2.663,6.666-3.481,3.867-.038,1.606-.389,3.186-2.469,1.289-.09,1.787.6,5.248-.17,2.315.7,2.759,1.541,3.483.952,2.461.95,2.621,1.223.592,3.038-.293.906-.066,1.18,2.718,2.088,7.721.977,1.523.558,2.124,1.6,1.363.49,5.292.227,3.085-.348,2.938.561,1.087.539,1.127,1.248,1.36,3.024.539.933-.583.5-.021.025.577-.487,1.133,2.14,2.367.348,7.715-1.9,4.661,1.051v165.641Zm79.667-14.6.219.066.232.022,4.91-2.671,6.256-3.407-.017-.09-6.344,3.456-4.906,2.671-.23-.022-.137-.038Zm-35.275-17.572.312.632-.287-.583-.4-.8Zm-24.4-14.748.017.016-.547-1.36-.022-.027Zm-3.587-11.037.137,3.443,1.393,4.318.024.033-1.387-4.3-.137-3.445-.271-1.22-.033-.047Zm-1.894-26.573-.167,3.651-.347,1.325-2.633,1.91-2.925,1.741-.8,1.478-.233,1.647.386,1.341.32.468-.284-.421-.389-1.338.235-1.647.807-1.478,2.92-1.74,2.636-1.913.347-1.322.167-3.653-.285-.378Zm-3.842-47.541.5,1.2,1.1,3.418.9,3.3.232,1.073.329,2.542-.405,6.959.649,8.818.87,4.379-1.371,3.944-1.174,3.763.076,1.886.644,2.942.635,2.173.033.044-.632-2.17-.643-2.942-.079-1.888,1.174-3.76,1.374-3.946-.871-4.376-.648-8.82.405-6.959-.329-2.542-.235-1.07-.9-3.3-1.1-3.415-.5-1.2-1.412-2.761-.03-.044Zm-8.114-38.639.878,3.971.958,4.365.966,4.368,1.141,5.126.646,2.9.78,3.511.917,4.113-1.478.873-1.667,1.114,1.215,2.11,1.278,1.867-1.246-1.821-1.218-2.107,1.667-1.114,1.48-.873,1.8-.92,2.556-1.045,1.322-.783.567-.66,1.924-2.7,1-1.5,1.369-2.047.6-1.431v-1.325l-.211-1.6-1.064-3.829-.871-3.746.676-1.448.544-.7,1.19-1.765.474-.348,2.564-.547,1.023-1.174.789-1.475.2-.774,1.122-.813,1.341-.816.824-1.043,2.7-1.636,2.463-1.489,2.871-1.571,2.217-1.215.471-1.065-.036-.922-.008-.014.03.878-.466,1.067-2.222,1.215-2.868,1.568-2.463,1.489-2.7,1.636-.829,1.045-1.341.813-1.122.816-.2.78-.788,1.469-1.021,1.171-2.567.553-.474.35-1.19,1.765-.547.7-.679,1.448.87,3.746,1.065,3.828.213,1.6v1.33l-.6,1.431-1.368,2.044-1,1.5-1.921,2.7-.564.668-1.327.788-2.556,1.043-1.8.92-.914-4.113-.786-3.511-.643-2.906-1.138-5.129-.969-4.368-.963-4.365-.878-3.971-.687-3.109Zm-195.006,12,.613.085.619.465.87.416-.063-.068-.875-.421-.619-.463-.585-.082Zm434.014-4.6-.016.022,1.215-1.336Zm-262.68-40.853,1.393,3.057,1.231,3.355.35,1.686.471.64,1.744,1.1,3,1.486.553.608,1.486,2.3,1.39,4.121.443,2.723,2.748,2.162,2.534,1.99,2.436,1.74,2.641,1.894.372.572-.369-.583-2.644-1.894-2.436-1.74-2.534-1.992L8154.21,1736l-.443-2.723-1.393-4.121-1.48-2.3-.561-.6-3-1.491-1.744-1.1-.471-.64-.347-1.683-1.234-3.355-1.39-3.057-.285-1.127Zm-130.623,20.881-.487-.419Zm-3.566-2.63.846.49,1.62,1.2-.068-.057-1.631-1.2-.812-.471Zm-7-33.464,1.095,1.037v-.005l-1.1-1.048Zm-4.753-7.567,3.185,2.477,1.809,1.467v-.011l-1.886-1.527-3.136-2.441Zm158.255-25.88v-.011l-.186-.78Zm-2.113-2.359,1.42.736.474.7-.005-.019-.474-.7-1.415-.733Zm-.016-.446.011.285v-.3ZM7897.282,1827.209ZM7755,1820.069l-.446-.348-.372-.569,1.768-.115,1.792-1.393.55.692-1.456,2.778Zm36.994-.87-.824-.435-1.461-1.757-.036-1.82,1.341-1.185.575-1.533,3.481.29.3-.3.26-.088.222.205-.09,1.314.35,1.322-.093,2.009-.72,1.086-1.847,1.084Zm-33.7-.862,0-.008v.011Zm16.516-5.774-1.076-2.458-.591-.791.941-.624,1.371.109,2.947-.523.6-.208,2.994-2.49,2.95-.307.071.818-3.259,2.537-1.265,3.892-1.179,1.524-.7.512-1.738.424Zm-7.241,1.88-.774-1.352.522-1,.479-.457.67.071,1.281.736.392.766.038.473-1.253,1.045-.005,0-.621.145Zm42.361-.742-.351-.318,2.055-.49,1.867-1.47,1.2-3.254,1.88-3.607.375-1.527.747-.6,1.023-.055.441.112.452.8v1.814l-.531,3-.985,2.66-4.062,1.434-.008.005-2.049,1.932Zm-51.545-8.232-1.792-3.314,1.086-1.48,1.979-.036.8,1.043.268,1.065-.375.616.115,1.242-.213.8-1.149,1.294.005-.011-.377.129Zm60.718-5.219.547-2.474.531-.739,2.091-1.084,1.74-.435.512-1.149.569-.446.613.7-.463.8-.367,2.488-1.155.8-2.436.846.005-.016-1.042,1.127Zm-47.661-66.339-2.31-1.045-.826-.8-.228-.72.75-1.106v-.016l2.061.941,1.891-.452,2.348,1.21,1.221.282-1.086.867-1.092,1.1Zm419.789-18.954h-.416l-.526-.386.178-2.11.169-.594,2.671-.082,1.442,1.264.238.348.058.348-.671.7-.525.43,0,.005-.4.088-.73.49-.386.055Zm5.566-18.661,1.541-1.393.4.35-.052.87-2.329,1.319Zm205.222-3.763v-1.166l-.129-.807-.4-.564-1.894-.487-1.807-.829-7.085-1.127-1.672-.446-2.712.233-1-.033-.7-.405-.474-.7-.216-2.222.348-2.2.588-.58.269.662.7.307.646-.671v-1.007l.328-.939.512.394.348,1.442.884.38-.049-.03,1.045.137,1.4-.019.315-.118.895-1.078,1.095-.019.477,1.065-1.114.49-.225.282.217.227.834.446,1.163-.167.03.837.258.7.571.411.621.079,1.374-.118,1.35-.268,1.393-.542,1.426-.274,4.258.274,1.527,1.163,2.912.14,2.7.613,1.42-.405,2.436-.375.392.411-.314,2.622.15.761.7.367.7-.178.849-.859,2.03-.662h2.11l.5-.493v3.887l-.54.215-1.792.085-3.273-.205-3.3.326-6.122.881-6.125.452Zm-155.634-16.075-1.27-.939v-1.97l1.462.386,1.341,1.316.435.632-.008,0-.5.6Zm-3.672-4.1-.208-.348,1.25-.285.61.249.258.484-.107.161,0,.014-.905.285Zm-302.028-.826-2.3-1.743-1.2-.123-1.957-2.712-.846-1.74-.6-1.872.123-.717-.167-.6-1.74-.758-.427-1.721,1.272-2.244,1.045-.955.644-.271-1.571.1-1.133,1.439-1.453-2.315-5.917-4.524.383-1.045-.063-.558-1,1.21-.679.315-3.026-.192-3.481.553-.922-4.7-.435-1.812-.112-1.171.9-2.712.988-1.106,1.3-2.288,1.618-1.9,1.7-.452.75-.282.626-1.472.351-1.262-.26-.12-.014,0,.252.118-.348,1.262-.629,1.475-.752.282-1.705.454-1.615,1.9-1.308,2.288-.985,1.106-.9,2.712.112,1.174.435,1.806.922,4.7-1.324.208-5.142,3.062h-1.59l-2.978-1.346-5.251-.435-1.713-.405-2.138.881-1.653-.022-1.313,1.125-.941-.312,1.081-2.523,1.694-5-.071-3.062.405-2.671-.465-2.646-.848-1.656,1.157-4.3-.134-2.219-1.043-2.821,3.21.427-.994-1.119-.979-.7-.944.156-.8-.041-2.734,1.092-1.371.326-.4-.192.15-1.741-.7-2.263,1.1-.6,1.272-.17,1.086-.972.673-1.081-.35-1.929.944-1.836,2.211-1.557-1.147.238-1.311.971-2.066,3.508-.67,1.776-1.76.575-1.579.285-.808-.189-.969-.446-.085-1.308.077-1.045.654-2.088.257-2.937.93-2.635-.071-.7-.265-1.045.829-1.043,1.045-.681,1.56-2.269,2.178-5.43,2.512-5.8-.205-.7-.534-.547.219-1.574,1.508-6.85.613-.9.7-2.017.162-3.259.279-2.25-.065-1.127-.225-1.36-.966-2.605-1.013-5.52-.079-1.847.834-.939-1.371-.134-.624-1.2.14-1.36,1.505-2.165-1.108.276-.394-.4-.134-3.2,1.741-2.14,1.231-1.289-.575-.266-1.306.038.09-1,.613-.482.591-1.092-.695-.471-.542-.72.033-1.886.15-.764-.178-.829-2.663,1.117-.7-.167-.027-1.393,1.478-2.135.148-.66-1.741-.317-1.289-1.043-.785-.944-.837-1.352v-1.158l.87-2.849,1.243-.827,1.075-.512,2.277-1.976,3.134.367,1.94-.424,1.741-1.013,1-.227,1.609-.881-.052-1.193-.553-.887.481-.835,1.8-1.024,2-1.36,2.3-.263,2.332-1.2,1.568.777,1.368-.266,1.579.92,2.072,2.088,3.035.846,2.436-.662,4.277-.14,2.137.279,3.8-.523,2.17.189,3.525-1.045,2.729,1.3,5.287.608,3.174,1.067,8.79,1.787,3.175.019,4.491-1,1.9-.755,1.74.446,2.556-.868,1.229.175,1.6,1.234,5.624,1.664,1.472-1.393,1.1-.309,4.042.859,4.081,1.741,2.118.126,3.1-.482,2.458-1.152.5-.183.016.025v-.068l2.46-.635,2.211-2.608,2.088-9.513,1.516-11.349,1.125-2.151,1.42-.591-1.144-1.568-.714.794-.3.848-.375.424.846-10.514.6-3.875,1.045-4.069,2.088,1.615,1.741,1.639.9,1.42,1.138,4.713.868.988,1.289.993-.509-1.084-.889-.827-1.393-6.292-.87-1.793-1.357-1.508-4.368-3.177-.392-.619-.219-1.218,1.448.055,1.25.591-.145-.679-.375-.7-.58-2.586-.481-6.064.065-1.043-.216-1.283-1.393-.285-1.122-.047-1.2-.506-5.947-3.593-2.039-3.722-2.085-2.756-.5-1.2.03-1.221,1.084-2.583-.955-1.636-.928-.323-.808-.813.731-1.352.607-.868,1.221-.233,1.6.285,1.519.783,1.19.211-3.511-2.088-5.706.7-1.231-.268-1.045-.471-.411-1.549.813-.7.733-1.292-.83-.906-1.075-.348h-1.688l-1.577.276-.4-.526.966-1.439-.818-.525-1.095.249-1.582.3-1.511-.454-1.431-1.639h-.947l-.649.2-.963-.635-1.015-.156-.728.211-.96-.944-5.941-1.894-2.562-.235-2.354.857-1.294-.3-.955-1.229-.8-2.055-3.788-1.587.75-1.045,1.763-.249,2.03-.72.731-.928-1.587-1.078-1.174-.268-.487-.391-.493-.974.7-.446.493.235,1.431.14,2.438-.235-.909-.985-.95-.219-.433-.246-1.992-.109-.906.348-2.031-.129-.443-1.043-.216-.917.632-2.031,2.86-1.825,7.137-2,3.065.293,2.124-.348,2.553-1.262,1.122-1.078,3.629-.638,3.445,1.147,3.174,4.324,1.516,1.461,3.716-2.54,5.539.074,1.141,1.428.462-1.2,1.018-1.412.813.649.413.879,5.843-.249.919-.254-1.573-1.043-1.281-2.466-.268-9.11-1.62-2.553-1.858-4.094-.851-2.436-.085-.846.288-1.223,2.282.066,1.765.315,3.361-.922,1.612.629-.1,1.9.492,2.4.561,1.163.854,1.319,2.707-.118,2.92.777,3.7.118,5.4,1.333,2.3-.774,2.228-1.653,4.239-1.084.35-.572-2.438.227-2.236-1.045-.3-1.133.257-1.024.908-2.356,6.489-3.73,4.649-1.1,4.855-2.061,2.433-2.115,1.612-2.737.525-.6.67-.509-.624-.985.419-10.542.451-1.913.947-1.565,1.442-1.212,2.184-1.311,8.051-1.814,1.193-.739.17,1.144.583,1.459.4.8-.348,1.043.263.854,1.095,1.538,1.36,1.448.041.03-1.36-1.442-1.092-1.538-.266-.857.348-1.045-.4-.8-.585-1.459-.167-1.138,6.568-4.045,4-2.088,1.891-.627.452,2.088.347.662.017.014-.339-.643-.452-2.088,1.141-.383,2.471-.14,1.913.731,2.518.348,1.927-1h.011l1.519.851,1.716-.616.011-.033,1.182.6,1.042.129.011-.005-1.007-.123-1.182-.6-1.316-.348-2-1.007-2.783.818-1.94-.98-1.609-.1-1-.78-1.083-1.325.761-.873.742-.3,2.95-.167,2.14.525,3.854,2.868.974-.022,1.045-.348-.525-.78-.96-.372-1.437-.772-1.141-1.084,2.685-.348-.367-.561-.35-.955-2.835-3.347.484-.909.7-1.946.887-1.625.7-.438,1.163-1.152,2.526-3.38,1.609-2.764,1.193-3.292,1.741-9.11.52-1.554.848-1.74,1.043.328.739.5,2.613-1.305,4.488-3.4,1.322-2.956,1.294-1.374,5.156-2.69,2.846-.8,4.4-.208,3.172-.476,3.829-.17,1.45,1.664.846,1.212,1.357.673,2.088.46.052.008-.118,2.414v4.707l-.156.835-.941,1.981-1,3.541-.268,2.326-.3.441h-4l-.569.405-.084.5.205.6-.1.591-.314.484.169.766.7.873,1.264.539h.005l-1.256-.536-.7-.867-.175-.766.317-.484.1-.591-.208-.6.082-.5.569-.4h4l.3-.443.269-2.326,1-3.544.944-1.979.156-.832v-4.707l.128-2.395-.695-1.125-1.489-1.231.314-2.573.5-2.011,1.5-2.474,1.188-.679,5.189-.405,5.739.167,2.383,3.738-.881,1.916,1.393.889.671-.328.512-1.664.347-1.85.493-.561,1.773,1.393.624.947.038,3.035.657-4.119-.49-2.887.348-2.811.717-1.461.654-.93,4.209,1.007,4.647-.517,1.76,1.089,3.976,5.416,1.33.887,1.672.282-2.307-1.155-4.819-6.615-1.442-.818-2.216-.246-1.393-.646-.871-1-.254-.9.052-6.7-.83-1-1.075-.35-.673.457H8159l-.29-1.521.345-1.13,2.77-.777,1.823-1.045.085-1.831-1.152-1.45-1.393-2.657-1.617-2.5-.186-2.915-.09,0-.137-2.165-.348-1.563-.991-2.334,1.461-.564-.285-4.576-.534-2.37-4.083-2.436-3.215-2.384.741-8.07.315-2.184-1.221-4.25.129-4.915.52-7.791,1.023-.307.75.038,2.9,1.393,1.2.14.826,1.253.969.515.7-1.33.271-2.277,2.3-2.953,1.609-1.092,1.095-.523,1.105,1.193.846,1.341.2-2.931.695-5.61-2.178-.881-1.781.766-1.757,3.56-1.573,4.458-2.548.413-2.039,1.259-1.833-1.308-1.182-1.152-.027-1.686.266-1.015,2.159-3.648,2.9-3.514,2.917.033,2.124-1.125,1.27-.134,3.965.241,2.033-.775,1.823-1.612,3.941-6.872,2.222-2.879,4.477-1.013,4.143-3.333,1.158-.044-1.946,2.485-.314.966-.235,1.47,1.39,3.183-.3,1.94.1,3.8-1.319,1.976-1.486,4.176-.64.613-.14,4.874.147,1.155-.219,4.4,1.527,1.8,1.606.936,5.37-.036.561.788.654,1.349-.474,2.293-.577,1.74-1.555,1.453-1.995,1.081-1.243.049-1.688-2.055-.8.665-.83,1.045-1.393,5.607-.665,3.771-.348.307-.783-.561-1.357-.041-1.716.892.881.8.928,1.4-.37.7-1.511.747-1.338,1.513-.561,1.136-1.686,1.352-1.064,1.713.522,2.113.219,1.855.462,2.044-.421,1.631-2.088,2.334-.769,2.02,1.79-.027,1.1.463.646.6.668.848-.408,1.043.5,2.657h.014v0l.077,0h-.077l.087.476,2.211.7.93,1.106,1.045,1.678.1,2.411-1.324,1.743-1.1,1.095,4.148-.413.416.988.629,1.073,2.23-.766,5.607,3.158,3.391-1.541.867-.09.77,2.553-.846,2.556-2.983,2.723.66,1.678.96.372,2.811-.348,4.458,1.653.931-.517,3.615-3.828,1.45-.824,4.754-.588.867-1.486,1.924-1.489,1.237-1.634,2.975-3.114,3.076.561,1.8.594,1.968.3,1.792,3.32,4.527,3.656,4.176-.318,1.48,3.446.654,4.239,1.28,1.333,1.125.865,3.4.9.137.052.008.052,3.386,1.44,1.447.829-.184-.93-.295-.8.2-1.171-.1-1.776-3.136-.909-2.069-.3-.008-.041-.583-.088-1.872.29-1.85-.411-.348-1.53.3-1.478-.742-1.015-.7-.6-.106-.848.115-.889,3.19,2.378,2.6,2.162-.011.049.548.452,2.03.183,5.011-2.395,8.643-3.134,9.236-2.931,2.159-.323,2.162-.619.8-1.1.8-.739,1.253-1.946,2.786-3.035,4.912-1.108,1.845-1.439,3.829-2.022,8.768-2.277,3.667-.506,3.591-.057,3.193,1.8,3.383,2.219.61,1.327-1.831-.829-2.671-1.981-.988-.09,2.28,6.034,1.25,2.129,2.513,1.582,2.118.539,6.508-.961,2.313-1.259.75-.651.6.315,4.229.348,4.288.348,6.894.372,7.182.375,7.457.405,8.064.424,8.506.255.521-.17.867-1.007,1.045.137,1.251.621.556.443-.022-.049-.588-.463-1.251-.624-1.062-.134-.843.983.024.049-.522.172-8.506-.252-8.07-.427-7.452-.4-7.184-.38-6.891-.367-4.283-.348-4.233-.348-.6-.315,2.332-2.228,1.516-2.312,1.289-3.029.14-2.088.32-2.375,2.012-.925,4.367.137,1.869-1.147,2.393-2.83,2.521-3.418.817-1.439h.009l1.732-3.04.659-1.99.46-2.83.405-.895v1.283l-.178,2.14-1.093,3.643-1.113,1.9,0,.008-.011,0-1.476,2.5-4,5.3,1.254.7,1.458.227,1.708.985,1.637.175,2.914-.848.512-4.524.191-4.13h.937l1.379-.29-.044-.052-1.393.287h-.936v-.189l-.531-1.921.561-2.947-1.015-4.338-1.647-5.221-.121-5.635-.117-1.273.033-.025-.455-4.978.249-10.293.6-5.139,2.811-3.008,1.412-2.345.815-3.134.249-2.912.569-2.417,4.072-6.962,3.224-.753,4.368-1.943,4.874-1.62.943,2.058.479,1.574,5.875,5.695,1.5,1.91,2.271,6.51,5.44,3.292,4.28-1.043,1.861-1.6,3.429-2.947,1.527-2.162.314-2.088-.6-8.984-.928-3.916.314-2.436.6.123,1.459-1.182,4.783-2.2.958-.1,1.087-.446,3.016-1.683.975.895.81,1.015h.44l.219-.375v-.025l-.178.3h-.443l-.81-1.013-.966-.895-3.019,1.677-1.093.446-.957.1-4.781,2.195-1.459,1.182-.6-.12.14-1.114,1.989-5.569.348-4.45.728-.613.217-.619-.31-1.426-2.063-.917-.837.137-.753,1.532-.777,1.106-1.825.671-1.571-1.163-3.675-1.554-.925-2.088-.222-2.091-1.94-2.02-.808-2.4.323-1.675,1.765-1.1.5-.961-2.22.151-.454-.227-.1-.865-.2-.6h41v33.456l-2.57-3.213-.227-.827-.348-.662-2.98-.859-1.1-1.283-.912-.178-1.344-.646-3.48-2.748-.865-.257-.21.463v0l.169-.367.868.257,3.48,2.75,1.339.649.919.178,1.095,1.283,2.98.857.366.66.225.829,2.6,3.245v71.724l-.381.768-1.237,1.075-1.942.4-1.588.731-1.182,2.25-.882,3.01.022,2.129.112,1.188-.1.679-.6.736-.979,1.954-.8,2.156-.307,1.169.147.55h.008l-.137-.5.307-1.171.8-2.159.978-1.954.6-.736.1-.7-.114-1.182-.022-2.137.879-3.013,1.182-2.247,1.588-.739,1.942-.394,1.243-1.073.361-.726v80.041l-4.18-1.156-2.088-.252-3.105-.019-4.724-.318-3.027.178-1.393.474-1.617.3-2.739.26-1.111-.027-1.74.156-2.012.38-.575.7-.008.016.5-.6,2.012-.375,1.74-.156,1.114.027,2.733-.265,1.623-.3,1.393-.473,3.027-.178,4.724.317,3.105.019,2.11.257,4.242,1.172V1428.3l-.6.877.049-.008.554-.805v87.391l-4.072,2.725-1.738,2.162-2.009,1.147-2.852.848-5.093-.318-5.312-1.086-5.7-1.169-3.084.643-4.176-.484-6.286-1.39-4.683-.424-4.6.821.03.025,4.614-.826,4.683.424,6.283,1.393,4.176.484,3.084-.646,5.7,1.171,5.312,1.087,5.1.317,2.852-.851,2.009-1.144,1.74-2.165L8424,1515.8v46.308l-.094.024.094-.023v22.438l-1.454.11-.563-1.434-.4-.8-.017.008-.424-.84-2.343-1.489-5.416-.87-2.589-1.1-1.136.2-2.205-1.231-1.5.542-3.2,2.189-1.74-.235-1.845-1.316-1.2-.244-1.393.7-2.258,2.52-2.3,1.232-2.055-.479H8387.2l-.3,1.393.534.974,1.51,1.658-.7,1.242.528,1.242.985.255,1.488-.071,2.75,1.609,1.2,1.7.77,1.847-1.678-1.33-1.114-1.281-1.557-.462-2.156-1.095-1.357-.183-1.437.758-.111.854,1.554,1.6,1.421.982.755.8.5,1.768-.287.594-.528.561-1.687-1.111-2.575-3.965-3.6-.791-.6.827.7,2.091.512.816,3.131,2.258-.246.476-.46.205-3.48-1.292-1.016-1.962-.241-2.49-3.229-1.743-3.049-1.891-.7-1.792.632-.665.446-1.316-1.672.244-1.046.832-1.693.807-.071,1.322.269,1.226-.562,1.781-.545,3.1.348,1.617,3.679,4.633,1.262,3.361.905,1.267,1.883,1.4,1.962,2.594.829,1.352.589,2.208-1.65,1.371-.958.055-.533-.6.744-1.508-.109-.919-2.551-1.426-1.075.476-1.245.925.7,1.721.8,1.138.4,1.557,1.529-.134-2.058,1.74-1.932.895-1.9.052-1.213.164-.416.446.985.32.8.033,1.309.944,3.719,1.125,1.779,1.426,1.74.129,1.74,2.611,3.027.7,1.74,2.63,2.3.515,1.979.972.575.919.293,1.667.128,3.522.43,2.616v.824l-.109,1.232-.536.6-.723.022-1.429-1.921-2.181-2.022-2.3-2.411-.654-.427-.542-.036-1.229.813-3.424.629-1.6.881-.6.194-.167.462.75.479.922,1.1v1.5l.767,1.823.982.471,1.28-.038.733.348.189.728.747.846.489.629v.446l-3.571,1.188-.75.542-.629.279-.931-.564-.055-1.45-1.229-.78-1.125-.671-1.352-.287-1.145-1-.75.813.6,2.819,1.3,1.938,2.173,5.186.985,3.049.2,1.475-.49,2.438,1.067,1.814.731,1.861-.8-.068-.7-.66-1.172-.772-2.271-2.977-.788-1.858-.946-.142-1.647.268-1.8,3.963v2.269l-.928-.542-.8-.7.1-2.479-.079-1.043-2.184-3.391-1-.383-.468-1.147-.808-1.223-1.046.23-.848.5-.23,1.85-.087,1.658-.638,1.242-2.326-2.365-2.349-4.1-.058-2.25,1.714-2.061-.2-1.475-1.62-2.917-2.348-1.875-1.316-.561-.621-2-1.251-1.045-1.015-.482-.2-.7.307-.523,2.463-2.061,1.447-3.237.715-.151,1.478.769,1.655-.2,1.357-1.9,1.152-1.045,1.943.137,4.387,2.534,4.71,1.448,2.351,1.262,1.333,1.256.7.257,1.122.178-.052-.939-.348-.826.931-.449,2.523.019.454-.441.471-.7-.522-.813-.835-.386-.895-.109-.589-.257-.949.257-1.48-.627-.767-.517-.446-.534-2.578-1.043-2.433-1.8-.556,1.018-.99.547-1.391.082-3.946-1.138-2.436.87-1.327.227-1.01.019-1.242.386-1.439.235-1.243-1.658-.52-1.284-.367-.244v1.21l-.4.969-1.825.545-1.043-.753-.81-2.277-1.016-2.9-1.792-2.348-1.459-.613-.126-1.292.129-1.043,1.743-.26,2.731,1.081.563-.216.615-.5-.117-1.1-.4-.985-.753-.044-.522.118-1.684-.205-2.159.545-1-.515-.348-.629-1.806-1.557-1.56-2.088-2.529-1.393-1.647-4.258-1.393-1.864-1.418-1.278-.131.008-.088-1.792-.471-1.39-1.7-3.363-5.55-3.27-1.306-1.472-.569-1.245-.574-1.171.55-.033.544.3.7.35.285-.588-.3-1.286-1.431-3-.107-.829.7-2.518,1.166-2.835-.074-3.443.348-2.611-.4-1.694-.194-2.091.856-2.783.736-.7.452-.887.029-2.958-1.655-1.393-1.863-.252,0,.071-2.356-1.606-.966-2.266-3.448-3.831-3.943-2.616-.211-.413.216-.509.187-.4-.821-.03-.572.32-.544-.09-.616-.982-.577-.848-.03-.753h0l-1.338-.542-.646-.266-2.72-1.864-1.2-1.045-1.9-1.352-1.168-.777-.592-1.174-.938-.268-.017.008.9.266.591,1.171,1.171.775,1.9,1.357,1.2,1.043,2.721,1.864.643.257,1.357.553.027.753.58.854.613.988-2.783-1.935-2.6-2.17-5.082-3.344-3.606-.816-4.935-2.7-3.21-.961,1.226-.216h1.407l7.61,3.6-.849-.966-.008-.008.03-.011-1.213-.829-.062.03-.72-.49-3.134-3.134-3.029-1.984-3.413-3.744-4.575-1.486-3.114-1.647-1.889.246-2.091.517h-1.283l-.914-.3-.646-1.023.1-.8-.115-1.043-1.825-1.656-2.49-1.568-2.356-2.033-4.734-5.509-.953-1.781.931-.35.7.033.8-.348h1.289l1.53.348-1.35-1.185-1.686-1.16-4.359-4.628-1.3-2.192-.147-2.367.322-3.251-.782-2.334-3.36-3.029-1.234-1.6-2.477-.95-1.114.09-.668,1.182-.484,2.624-2.2,3.459-.73,1.492-1.152,1.943-1,.137-.589-.172-1.784-3.27-1.707-2.49-.235-1.177-.156-1.45-1.3-5.364.911-.753.566.859,3.977,1.045.859-.457.522-.7v-.03l-.484.649-.859.463-3.977-1.045-.563-.862.9-.408,1.24-1.114.063.008.922-.816-2.342-3.1h-1.046l-1.393,1.311-3.9-1.33-.75.539-.553,1.045-1.357,1.3-1.921.572-2.144,1.431-2.255,1.013-1.719.763-.993-.137,1.571-1.653-.668-.03-2.088,1.169-1.2.985-.391,1.656-.348,2.723.917.72,1.6,3.588,1.973,1.527-.38,1.459-.521,1.152-1.2,1-.991-.739h-.607l-.457,2.329.852,6.19,1.393,4.327,1.368,1.883,3.082,2.923,3.262,1.538,5.864,4.9,3.216,1.549.846.843,1.946,3.757,1.686,4.332,1.812,6.765,1.292,3.317,2.6,3.746,5.4,5.337,4.91,3.891,4.575,2.4,3.566.419,8.442-.526,1.467.224,1.56.646.369,1.664-.571,1.119-1.773,1.163-1.812,1.609-.2,2.189,1.688,1.538,8.145,4.072,8.33,3.4,2.592,1.74,3.008,2.682,7.257,3.681,1.227,1.784,4.408,3.829,2,2.956.384,2.288-.955,2.318-.441,1.634-.747,1.606-1.877-.6-2.135-1.658-3.221-6.746-5.867-.7-1.213-.5-2.091-1.16-.126-.769-.512-.958-.533-.32-2.247-.216-1.555,1.1-1.83,2.6-2.091,3.73L8278,1599.5l-.118,2.195,1.145,2.126,3.421,1.182,2.644,1.891,1.74,1.97.123,4.74.783,2.685-1.149,1.522-2.223-.391-2.958.971-2.086,1.741-.875,1.645.227,4.261-.433,1.62-3.976,3.054-2.089,3.134-.52,1.292-.8,1.461-5.02.057-1.19-1.814-.041-2.7.859-1.661,1.845-.78,1.245-3.484-.392-2.5.726-1.114.7-.783,1.391-.465,1.989-.441.2-3.511-1.549-1.6-.542-2.247-.72-4.151-2.556-5.323-1.366-4.762-1.069-2.356-1.626-1.232h-2.931l-1.459-.348-5.186-3.325-.348-.506.035-.889.856-1.338-.58-1.814-.612-1.716-1.016-1.464-1.114-.764-2.337.465-.815.348-1.473-.12-1.157.651-.644.019,1.817-2.575-.492-.608-1.8-1.045-2.436-.161-.679-.129-.4.662-.474-.348.05-1.152-2.833-5.175-1.907-2.113-.963-.378-1.741.446-2.909-.925-1.74-.205-.958.224-1.431.673-.72-.446-.255-.7-2.641-2.159-3.3-1.223-6.417-6.9-1.971-2.589-4.053-2.857-2.557-4.179-2.088-1.53-3.054-1.231-.7.156-.917.462-.72.066-.569-.542.58-.561.651-.255-.254-1.606-3.481-4.176-2.033-1.344-.575-.829-.424-1.133-.435-.747-.963-.432-.826.071-1.136-.285.038-2.011.225-1.546-.172-1.311-1.108-3.459-1.916-2.939-1.127-7.055-.873-1.995-2.118-1.511-4.784-1.7-6.667-4.578-1.393-.079-4-1.784-2.488-.307-3.229,1.6-3.922,4.4-3.18,4.557-1.155.881-4.108,1.546-3.629.739-.036-1.163-.131-.876.613-.961,1.013-1.136.93-1.431.386-1.043-.181-.7-.416-1.024-.017,0,.4.985.184.7-.386,1.045-.955,1.456-1.01,1.136-.613.961.128.878.039,1.158-.821.35-.027-.23-.347-.2-.293.115-.225.252v.005l.206-.222.29-.118.35.2.017.224-.922.394,0-.03-1.716.731-1.209.772-4.786,4.584-2.236,1.341-.443.8-.46,1.508-1.311,1.292-1.152.613-2.849.629-2.859,1.366-1.292-.591-3.333.06-2.088-1.645-4-1.045-1.3-2.4-1.825-.159-1.193.077-.717-.364-.186-.826v-.788l-1.261.364h-.972l-.575.318-.452.348-.536-.23-.315.079.03.465-1.163.118-1.27-.285-3.3-1.245-.506-.194-2.3-.476-.928-.5-.752-1.231-.569-.389-.348-.233-2.14.624-.742.969-1.158,1.133-7.942,5.553-1.45,2.318-1.681,3.4-.128,1.587.723,5.057,1.614,2.649.2.613h-.9l-1.5-.35-1.242-.411-1.188.227-1.141.55-1,.348-.72.093-.476.315-.232.63-.041.443-1.265-.109-2.92-.9-2.625-.624-1.541.7-1,.66-.7-.1-.531-.7-.348-.7-1.045-.624-2.323-.944.1-.372-.005.008-.112.443-.414.137-1.393.832-.794.29-.722.145.027,0,.722-.145.791-.29,1.4-.829.414-.134,2.323.944,1.045.629.348.7.531.7.7.107.994-.662,1.541-.7,2.625.621,2.923.9,1.264.107.041-.441.235-.632.479-.318.72-.088,1-.35,1.141-.547,1.188-.23,1.245.411,1.5.345h.9l.427,1.292.728.493.284,1.117-1.33.583-.789.079-.241,1.91.378.536.747.509.205.583.148,2.786-1.524,1.683-2.143,1.891-10.481,6.053-2.5,2.92-.952.673-7.792,1.834-5.443,1.959-2.611.7-3.259,3.393-1.544,1.363,1.232.378,1.434,1.62-.484.717-2.088,1.108-.911.348-.5-.178-.468.153-3.563,5.829-3.1,4.179-1.74,1.817-1.787,2.7-3.8,6.962-.027,2,1.875,6.883,1.076,1.8,1.5,1.511,2.852,1.283.7,1.264-.985,1.2-2.852,2.137-4.959,2.882-2.11,2.269-.446,2.187-1.451.985-.55,3.051-.878,2.017-.17.7-.936,1.527-.12,1.117,1.53,1.527-.758.662-.758.293-1.741.178-5.881.194-4.729,3.295-2.362,2.917-2.14,5.4-2.6,3.183-1.146.588-1.779-1.393-2.225-.216-2.159.463-1.13,1.111-1.765.618-1.74-.531-3.735-.293-1.662.057-2.6.9-2.23-.6-3.763-.307-8.139.717-1.045.348-1.018,1.333-2.591,2.3-3.944.082-3.568,1.461-.9.936-1.5,2.575-.471,1.88h-.312l-.386-.463-.55.151-.285,1.431-1.341.649-1.122.238Zm-26.069-68.145.169.35,1.193,2.118,1.245,1.125.414.257.446,2.471,2.014,3.938,1.951.542.682.985-.123,1.393-.6,1.511-1.2,1.549-1.429,1.086-.931,1.078-.071,1.253-.3,1.587-.446,1.253-.115.846,3.571,5.3.016,0-3.568-5.3.112-.846.449-1.253.3-1.587.071-1.253.936-1.084,1.426-1.086,1.2-1.549.6-1.513.123-1.393-.679-.985-1.951-.542-2.017-3.941-.446-2.471-.413-.257-1.243-1.125-1.193-2.118-.17-.348Zm420.164-2.351-.1.859-.235.725-.315.408.033-.027.348-.443.232-.736.1-.851.143-.214-.02,0Zm-401.656-36.9.977.816.326.827.137.572-.479.32-.676,1.229-1.724,1.6-2.458,1.437-1.877,1.787-1.294,2.135-1.617.9-.493.484-.191.575,1.07,2.6.329,2.009.266,2.436-.17.7-.093,2.693-.247.783.063.64.394.7.178.657-.739.832-1.352.966-1,.851-.269.8.074.5,1.686,1.683.31.7-.228,1.658-.971,2.72-.925,1.653-.159.161-1.021.457,1.045-.465.161-.164.925-1.65.966-2.718.227-1.664-.306-.7-1.686-1.683-.071-.5.271-.8,1-.851,1.349-.966.739-.832-.178-.654-.392-.7-.065-.643.246-.785.09-2.687.175-.7-.266-2.436-.328-2.009-1.073-2.6.2-.575.493-.484,1.62-.9,1.292-2.132,1.875-1.784,2.463-1.44,1.718-1.6.679-1.226.477-.323-.14-.572-.323-.829-.979-.813-1.262-.463-1.4.019-.868-.167-.254-.632.093-1.724-.071-1.7-.274-.788-.648-.591-1.286.156-1.114-.482-.846-.112-.008.005.829.112,1.114.484,1.284-.156.651.591.268.785.074,1.708-.1,1.719.254.638.87.167,1.39-.022Zm401.924,33.031v.564l.5,1.174.563.961.017.753.063-.049v-.769l-.566-.958-.5-1.177v-.542Zm1.476-1.377-.367.638-.624.457.009,0,.7-.512.35-.608Zm6.013-7.8-.551,1.043-.273,1.125-.512.832-.314.917-.49,1.861-.112.671-.714.649.021-.005.777-.7.109-.673.49-1.861.317-.917.509-.832.276-1.125.534-1.015Zm2.4-8.027,0,.005-.129,1.486.482,1.141.651,1.174v.714l-.441,1.174-.774,1.344.074-.036.78-1.366.44-1.169v-.679l-.657-1.174-.481-1.141.126-1.478Zm2.083-.129.044,0,.667-.129h-.035Zm3.35-.222.074,0,1.188-.78-.061-.005Zm12.287-5.438-2.2.194-.966.468-2.264,3.134-2.293,1.081-.741.515.043.019.783-.542,2.3-1.076,2.266-3.133.964-.471,2.2-.192.679-.339-.071-.005Zm-21.1,4.688,0,0,1.951-.255h-.008Zm30.845-8.508-.43.389-.46,2.685-1.834.766-1.655.43.079.005,1.664-.435,1.828-.766.46-2.682.435-.389,1.136-.107.786.019.2-.391.348-5.011.818-2.241-.03-.462-.006-.011.03.462-.818,2.247-.35,5.008-.2.4-.856-.022Zm3.738.131,1.97.071,1.268-1.259,2-.09.911-.181-.063-.011-.927.186-2,.09-1.265,1.259-1.916-.068Zm46.474-8-.348.427-.29.624.161.66.515.649.49,1.74.178,1.741-.3.988-1.032.69.061-.022,1.045-.7.3-.993-.172-1.738-.49-1.74-.52-.646-.167-.668.3-.621.328-.408Zm-19.813,7.058-.314.315.027.019.348-.348.73-.405-.02-.005Zm-18.962-.263h1.5l1.921-.526,1.793-.867,1,.052-1.078-.06-1.793.868-1.921.528h-1.45Zm7.771-2.824-.348,1.166-.322.178-.569.156.076.005.569-.156.326-.186.345-1.166Zm5.02.063h.052l1.486-.624-.027,0Zm-20.895-4.377-.164-.321h0Zm-1.423-1.895.525,1.215h0l-.521-1.207-1.092-3.2-.006-.005Zm-469.325.307-.03,0,.314.161.879-.041.014-.008-.852.041-.317-.161-.038-.12Zm7.953-1.078.484.326,1.511.443,1.647.049.011-.005-1.637-.047-1.51-.443-.482-.326-.728-.293-3.073.348-.369-.266-.017.011.361.26,3.073-.348Zm427.914.394h0l-.609-.089Zm-10.019-17.849.548.947.347,1.111-.287,1.522-.093.189,0,0,.594.463,1.242,2.011.826,1.776,1.629.613.905.7,1.169,1.045.559,1.043.8,3.213.091,1.935-.23.881v0l.181.145.013,0-.187-.15.235-.881-.091-1.935-.8-3.213-.559-1.043-1.168-1.045-.9-.7-1.631-.613-.824-1.776-1.242-2.011-.6-.463.1-.2.285-1.524-.348-1.108-.551-.947.367-.566h-.006Zm-114.63,16.795.014.12v-.12h-.109Zm-311.8-.454,0,.008,1.253-1.831v-.005Zm16.059-1.062.717.342,1.045.276,2.488.115.011-.008-2.474-.109-1.042-.276-.728-.348Zm399.059-3.878.75.884.433,1.136v0l-.463-1.212-.709-.832Zm29.055.881.759.6h.008l-.755-.594-.961-.936h-.011Zm18.694-1.817-1.475-1.918h0Zm.027-2.835-.339.6,0,0,.34-.6Zm.317-9.877-.413,1.043.4.84-.038.846-.405,1.639.542,1.762.791.8.12.462-.137.818-.158.227.172-.244.135-.821-.126-.46-.788-.8-.542-1.757.405-1.639.038-.846-.4-.84.408-1.032Zm-41.225,6.39.024.06.05-1.645-.025-.074Zm-274.317-2.151,2.137.621.446.588v.35l.033-.049v-.394l-.446-.583-2.14-.621-1.016-.159-.637.43-.465.526-1.19-1.935-.849-.4-1.281-.068-1.469-.591-1.527-.758-3.7-1.207-1.015-.148-.414.192-.276.728-.145,2.044-.156.227-1.721.068-2.118-.287-.975.14h-.867l-.818-.542-3.665.621-.61-.3-.881-.922-.991-.75-.767-.38-.654-.443-.591-.071-.906.427-1.25.183-1.045-.055-.553.057-2.324-2.269-.35-.619-1.155-.17-1.431-.03-3.648-1.475-1.659-.791-.238-.463-.005.074.247.473,1.664.791,3.648,1.475,1.429.027,1.158.175.348.618,2.323,2.269.556-.057,1.042.055,1.25-.183.906-.424.591.068.654.443.766.38.988.75.881.92.61.3,3.662-.618.815.542h.868l.977-.14,2.118.287,1.724-.071.156-.224.142-2.044.276-.725.411-.194,1.016.148,3.708,1.21,1.527.755,1.47.591,1.281.068.848.394,1.174,1.918.446-.5.641-.427Zm281.572-3.366-.345.9h0l.345-.9Zm3.919-3.147-.255.588.433.936-.2.32.222-.345-.43-.936.243-.575Zm-70.286-47.109-.527.509-.4,3.651-.351,3.21-.021,1.921,2.161,1.776,2.554,3.054.818.348.407,1,.6,2.567.671,2.882,1.3,1.9,1.166,1.357,1.426,1.2,1.792,1.864,1.462,2.052.394.75,2.844,2.7,2.761,2.75,2.466.963.389.5.02,2.113.271.788,1.647,2.208,3.36,3.218.387.744.109.547-.211.413.049-.022.214-.419-.109-.55-.386-.742-3.361-3.216-1.652-2.206-.266-.8-.024-2.11-.389-.506-2.466-.961-2.759-2.75-2.852-2.709-.389-.75-1.464-2.05-1.79-1.866-1.429-1.193-1.165-1.355-1.3-1.907-.673-2.879-.6-2.559-.4-1-.823-.348-2.551-3.049-2.167-1.776.019-1.921.348-3.213.405-3.653.5-.487Zm-261.235,44.651.3.4.487.312.522.09.348-.1.268-.55.509-.671.279-.085.006-.088-.285.088-.512.673-.269.545-.348.107-.522-.088-.484-.315-.271-.367Zm333.749-2.6-.2.422.424.98.3.635-.14.591-.355.744.008-.008.367-.758.14-.591-.3-.635-.427-.985.2-.4Zm26.745-10.531.63.854.571,1.314.375,1.74.841,1.333,2.143,1.311,1.064.763.791,1.108.6,1,1.769,1.33-.135.941.006-.008.134-.95-1.768-1.33-.6-1-.793-1.106-1.067-.766-2.143-1.311-.841-1.336-.377-1.74-.572-1.311-.63-.854Zm-365.207,6.91.591.991.613.364,1.292.506.993.068,1.355.238.919.569.052.818,0-.019-.055-.887-.919-.572-1.355-.235-1-.071-1.292-.506-.619-.35-.585-.98Zm313.631,1.817.014,0-.662-1.111-.021-.005Zm6.353-5.84.774.118-.761-.118-.6-.536h-.009Zm45.105-3.588,0-.011-.263-.843Zm-150.4-3.226-.443-.848h0Zm.887-.159h0l.313-.755Zm.448-1.073h0l-.167-.772-.946.153-.4.6.4-.6.946-.156Zm104.7-.506.011,0-1.4-.134Zm.068-.011,1.442-.183,0,0Zm-2.233-.312.6.17h.009l-.6-.172Zm51.066-5.323.243.205.006-.005-.03-.027-.219-.183Zm-1.6-1.894.987.457-.032-.036-.991-.46Zm-235.325-10.438.575,2.345-.351.586-.72.249-.432.961-.851,1.412-.487,1.136.539,1,.227.744-.287.764.383,1.182.021.027-.372-1.169.285-.769-.227-.739-.537-1,.487-1.133.851-1.418.433-.963.72-.249.35-.588-.578-2.345-.3-.375-.019-.011Zm231.8,3.268-2.263,2.436-1.612.389.03.047,1.62-.391,2.266-2.438,2.217-.632,2.182,1.166,1.149.933,0-.011-1.187-.966-2.179-1.169Zm-10.744-.69,1.568.627,2.556.309,1.746.966-.014-.022-1.778-.988-2.554-.3-1.546-.621Zm-4.17-2.463,2.463.777,1.092.717-.014-.025-1.122-.731-2.422-.766Zm-35.728-1.636.175.733h.022l-.178-.739.208-.32-.02,0Zm.733.684.017,0,1.338-.6h-.011Zm-186.421-5.87-.974.558.107,1.043.856.969.5,1.045.2,1.095.947.816-.914-.788-.206-1.095-.5-1.045-.856-.972-.107-1.043.974-.561,1.33-.022.936.214,2.088-1.7.775-.151.695-.367.583-2.334.446-.7.106-.411-.416-.49-1.694-1.645-.777-1.721-1.22-1.932-.022-.016,1.215,1.921.777,1.724,1.694,1.645.413.493-.106.411-.446.7-.583,2.329-.692.367-.775.153-2.088,1.7-.936-.208Zm187.734-.608-.019.509-1.01.307.558,3.481-.225,1-.358.339.014.005.37-.348.227-1-.566-3.478,1.013-.307v-.506l.044-.216Zm33.938,4.286.49.35.928.345.884.468v-.014l-.928-.493-.928-.348-.463-.328Zm-74.377-3.982-1.335,2.214-1.054,1.018.021.008,1.078-1.045,1.333-2.208,1.149-1.149-.027,0Zm22.589,1.062-1.092.72h.014l1.119-.733.7-.624-.02-.005Zm17.946-1.806,1.043.608h1.461l.441-.044-.438.041h-1.461l-1.043-.61Zm27.249-3.623,1.234.936,1.146.6.729.044,1.182,1.075,2.346.775.752.268.487.421-.016-.019-.507-.443-.753-.268-2.345-.777-1.183-1.076-.725-.044-1.149-.6-1.229-.93Zm-62.672,3.607.03,0,1.637-1.472Zm33.475-5.766-.041,1.42,1.333,1.344,2.712,1.259.867.211.178.246-.169-.249-.865-.216-2.72-1.259-1.333-1.341.041-1.42Zm26.967-.041,1.152.865-.033-.041-1.156-.867Zm-85.849.37,1.989.2,1.47-.55-.014-.057-1.423.528-1.989-.2-2.356-1.043-.824.151-.8.55-.818-.238-.9-.649-1.27-1.352-.619-.832-.252-.881-.347-.129-.528.257-.033.082.528-.257.345.129.255.887.621.829,1.27,1.352.9.649.815.235.8-.545.823-.156Zm-15.484-.569,1.139-.156,1.842-.036,1.312.115.875-.523,1.172-1.921.027-.066-1.163,1.9-.87.523-1.309-.115-1.839.036-1.149.159-1.391-.676-.348.129v.063l.31-.115Zm73.012-2.66.542.917,1.529.665.135.257.008,0-.14-.265-1.529-.662-.542-.92Zm-54.785-.315-.008.055.984-.676,0-.047Zm54.435-3.267.8,2.4-.2.539.206-.545-.8-2.406-.832-1.467h0Zm-80.173-.993,1.207.443.884.66,1.637,1.727-.014-.027-1.656-1.74-.875-.66-1.2-.441Zm-100.26-1.24-2.053,1.163-.232.747.024.846.233.668.027.022-.233-.662-.027-.846.233-.747,2.052-1.163,1.149-1.169-.014-.011-.005-.019Zm131.05.747-2.575.785-2.674,1.39-.011.063,2.646-1.379,2.575-.783.416-.608.011-.036Zm76.8,2.159.276-.047.287-.249.2-.2.194.159v-.014l-.228-.186-.2.2-.287.246-.279.047-.55-.61Zm-46.362-2.863,1.016.887,1.519.8,2.365.435,4.523.109.405.019,1.021.246,1.2-.312,1.458-.621.466-.369,1.529-2.033.846.175,1.678-.246,1.016-.449h.07l0-.019h.348l1.33-.616.484-.5.276-.586.317-.148.89.638.941.055,1.045-.4.794-.553.938-.463.433-.317.548-.5,1.1-1.475,1.251-.306,1.68.383,1.812.131,1.36-.35,3.427.432.738.348.44.353,0-.005.594-.525,3.429-.744,1.6.728.72-.265.7-.588.386-.474.074-.5.347-.624,1.155-.3,3.065.383,1.234-.879.454-.473.279-1.043.325-.848,1.095-.452v-.774l-.167-.84.632-1.888.389-.774.621-.282.745-.6,1.3-1.234-.3-1.075.258-.8,1.354-1.946,1.043-1.883v-.947l.15-.824.914-.906.957-1.177,1.265-3.689.454-.621.829-.7.619-.7.068-2.438.577-.7,1.114-.794,1.105-1.27.9-1.508.7-.7.916-.189,1-.591,1.111-.222,1.084.293.7-.153,1.045-.731,2.641-2.783.375-.556.487-.342-.032.016-.46.32,0,0-.375.553-2.642,2.783-1.045.731-.7.151-1.078-.293-1.114.222-1,.591-.919.186-.7.7-.9,1.505-1.108,1.273-1.111.788-.583.7-.065,2.436-.621.7-.826.7-.46.618-1.265,3.692-.958,1.177-.911.9-.15.824v.95l-1.046,1.883-1.354,1.946-.26.8.3,1.075-1.3,1.237-.75.6-.624.282-.383.772-.638,1.891.167.837v.777l-1.1.449-.325.848-.276,1.045-.457.473-1.231.876-3.065-.383-1.157.3-.348.624-.074.5-.386.473-.7.588-.714.263-1.6-.722-3.427.739-.591.525-.479-.378-.739-.348-3.424-.432-1.352.348-1.814-.129-1.675-.378-1.253.309-1.1,1.475-.55.5-.427.315-.944.462-.791.556-1.045.4-.941-.055-.89-.638-.314.145-.282.588-.487.5-1.33.616h-.421l-1.019.452-1.678.252-.846-.178-1.529,2.033-.463.372-1.461.619-1.185.315-1.024-.246-.4-.022-4.526-.1-2.365-.438-1.519-.8-.985-.868Zm-61.442.731.035.077-.035-.079Zm-65.095-13.9v1.831l-.128,2.282-.723,1.467-2,2.542-.73,1.1-.3.8-.061.7.307,1.188.413,1.136-.333.619.071-.022.348-.651-.416-1.136-.307-1.185.058-.7.293-.794.739-1.106,2-2.54.723-1.469.129-2.277v-1.831l.594-.4h-.008Zm167.6,10.837,1.2.75,1.426.895.7.627-.008-.014-.731-.651-1.428-.895-1.18-.739Zm-46.031-.443,1.448.977,1.855.214,1.154.586-.016-.036-1.175-.591-1.857-.213-1.429-.966Zm-136.069-8.807-1,1.357-2.058,1.532-.216.323.695,1.489-.03.575-1.68,2.37-.318.78-2.063,1.437.02-.011,2.124-1.478.317-.783,1.675-2.365.036-.575-.7-1.491.216-.326,2.053-1.527,1.007-1.357,1.032-.859h-.019Zm80.245,9.5-.2-.394-1.39.129-.312-.276.006.033.323.287,1.4-.129Zm50.23-6.294,1.391,1.442,1.768,1.021,1.374,1.374-.014-.022-1.393-1.393-1.773-1.021-1.353-1.4Zm-13.182-2.578-1,1.431-1.016.61-1.292.427-.958.517-1.212.452-1.043.276-.413.621-.014.041.386-.591,1.046-.271,1.209-.449.958-.52,1.292-.43,1.016-.6,1-1.437.6-.238,1.82.205.394-.348,0-.033-.337.3-1.831-.205Zm-38.877,3.385.8.435,1.316.419-.006-.044-1.329-.419-.8-.432-.632-.153-.436.244-.317-.276-.314-.758,0,0,.328.8.323.276.436-.244Zm-112.523-.52-1,.512v.066l.961-.49.9-.9.014-.066Zm61.1-7.838-.394,1.163-.348,1.39.112.772.542.6.416,1.253.312,1.637.23.75-.241.331.071-.022.252-.35-.233-.755-.306-1.628-.422-1.264-.55-.591-.109-.769.348-1.393.388-1.152Zm-58.156,5.878-.162.29.087.235.646,1.2.052-.063-.654-1.22-.08-.238.121-.222Zm53.627-.312-1.289.629,1.305-.635Zm102.408-3.065,2.69,1.5,1.833,1.658-.008-.014-1.864-1.686-2.689-1.5-.761-.3.008.019-1.335-.534-1.606-.224-.3.287-.643.3-.05.077.641-.293.3-.287,1.609.224,1.391.512-.025-.057Zm-30.506,1.817.411-.287.3-.5,1.25-.6,1.155-.78.818-.988.454-.788.8-.561.848-.159.774-.282,3.265-.375,3.358.3,1.6-.553,1.318-.958,1.93-.268h.1l2.879.742.017-.03-2.879-.739h-.1l-1.93.268-1.321.955-1.6.553-3.36-.3-3.263.375-.779.276-.843.164-.8.561-.454.788-.812.988-1.158.78-1.256.6-.3.5-.405.29-.7-.375-.569.022-.7-.26-2.3-.279-2.528-.46-1.213-.443-1.368-.348-1.472-.285-1.316-.068-.662-.129v.025l.648.134,1.313.06,1.478.287,1.368.348,1.207.441,2.528.463,2.311.282.7.26.562-.022Zm-127.659-2.028.205-.435,0-.011Zm96.459-3.935,1.8.405,1.526.145,1.6.473,5.481,1.169,2.762.326,2.088.049.706.156-.753-.183-2.091-.055-2.759-.326-5.481-1.16-1.6-.473-1.521-.148-1.81-.4Zm-31.223-6.368.6,1.431-.03.764-.695,2.854-.126,1.538.6,1.007.063.791-.169.684.068,0,.178-.717-.065-.783-.607-1.013.12-1.532.7-2.865.4.219,1.516.03,1.625.156-.033-.038-1.65-.167-1.519-.027-.4-.216.027-.766-.6-1.428-.988-.446-2.556,2.7-.7.244-2.061-.75-1.8-1.152-.191-.846-.293-.7-1.513-.657-1.886-.443h-.572l-.039.068-1.174-.12h-.219l-.124-.777.071-1.664.651-2.173.14.348.079.46.137.484.077.591.243.608.441.572.131.523.011-.027-.14-.547-.443-.572-.243-.61-.077-.591-.134-.484-.082-.46-.126-.32-.022.041-.648,2.173-.071,1.664.123.78h.219l1.174.118h.6l1.886.443,1.511.657.3.7.194.846,1.8,1.155,2.061.747.695-.246,2.559-2.693Zm-62.3,6.125-1.875,1.579-.471.958-.008.025.44-.895,1.88-1.579,1.883-1.59.011-.06Zm67.57-2.389,1.043.394,1.483.123,1-.161.484-.443.574-1.365,1.064-1.7,1.667-.868,2.852-.161,1.429-.318h1.478l1.114.266,1.151-.03,2.929-1.185,3.016-.936.369.137,0-.008-.419-.159-3.019.936-2.929,1.182-1.151.036-1.114-.26-1.486-.022-1.42.318-2.852.161-1.667.87-1.064,1.694-.58,1.368-.481.441-1,.167-1.483-.126-1.01-.383Zm79.623-1.163-.911.958v0l.895-.936.841-.411,2.854.134-.011-.019-2.841-.134Zm-136.723-10.1-.4.775-1.984,2.3-2,2.315-.323.7-.635.49-2.545,1.237-.265.493,0,.03.232-.438,2.545-1.237.638-.49.326-.7,2-2.318,1.976-2.3.4-.772.351-.46v-.036Zm141.157,6.636,1.357.107.014-.005-1.357-.109Zm-92.775-6.992-.041.846.074-.011.036-.788.219-1.043-.071-.03Zm-2.288-3.492.389.542.219.46-.121.783.066.044.118-.783-.219-.454-.386-.55-.947-.7-.02-.011Zm-46.214.493-1.042,1.311.008.022,1-1.253,1.286-.8h1.25l.5.37-.03.438.539.465.947.153,1.171-.161,1.158-.49.717-1.169.414-.887,1.825-1.013,1.243.512,3.461.134,2.521-.274,1.574-.7h1.954l1.311.389.235-.06.348-.088.348-.37,1.237-.257.159-.307v-.014l-.14.252-1.231.255-.347.372-.348.09-.235.06-1.311-.386h-1.954l-1.576.7-2.515.271-3.461-.134-1.243-.512-.017-.008-1.809,1-.414.889-.717,1.166-1.16.49-1.166.164-.947-.153-.539-.468.027-.438-.5-.367h-1.242Zm142.977,1.185,0,.016,1.043-.109.035-.019Zm-84.136-2.277.348.679.879.977.435.632.03,0-.4-.58-.876-.977-.35-.67.038-.438-.068,0Zm-25.44-3.67,2.526,1.609,2.581,1.609.457.287,1.073.982.011-.063-1.076-.985-.4-.252,0,0-2.63-1.669-2.523-1.6h-.837l-3.717.323-.109-.14-.648-.914-.572-.293-.348.151-.233.265-.4-.044-1.664-1.475-.7-.216-.947.2-1.117.8-.493.974.006.019.462-.922,1.122-.8.944-.2.7.219,1.664,1.475.405.047.227-.263.35-.151.575.293.643.914.115.14,3.716-.323Zm54.52,1.308-.225.375.021.586.053.063-.022-.564.228-.367-.37-.72-.021-.014Zm-78.5-6.65-.821,2.961-.14,2.236,0,.008.139-2.228.821-2.967.232-2.178v-.005Zm136.6,3.757,1.519,1.177.575.17.033-.022-.564-.167-1.516-1.177-.852-.265-.6.071-.014.014.571-.066Zm2.7.98-.024.016.577-.071,1.675.041,1.409-.274,0-.008-1.363.266-1.672-.041Zm-59.229-.55.46.2.867.074.7.227-.024-.079-.726-.235-.867-.082-.392-.172Zm185.189-2.293-1.415,1.7.058-.019,1.421-1.708Zm-120.676-4.258,1.527.175.348.246.238.057,2.466,2.318,2.337,1.74,1.91.895,2.808.068,2.988.079h.033l-2.967-.079-2.811-.071-1.91-.895-2.337-1.74-2.469-2.318-.235-.055-.366-.249-1.546-.175Zm-66.582-1.4,1.354,2.05,1.521,2.058v-.03l-1.565-2.118-1.311-1.97Zm155.853.608-.531.939.076-.036.545-.958.692-.8-.044,0Zm-232.145-5.285-1.347,2.783-.493,2.091,0,.008.493-2.085,1.344-2.786.571-1.878Zm179.858,1.322,1.242.523,1.524,1,1.342.539.024-.011-1.313-.531-1.524-1-1.265-.525Zm28.371-6.781.881.594.6.728.454,1.045.238.383.395.525.694.72.7.189.022-.005-.671-.181-.7-.723-.391-.523-.241-.38-.454-1.045-.6-.728-.881-.6-.808-.7h-.044Zm-69.412.427-.638,1.393v.016l.632-1.393.586-1.081v-.008Zm61.5-.38,1.3.312.027,0-1.283-.309-1.74-.591h-.044Zm-193.757-8.388-.247.3-3.041,3.993-1.281,1.426-.651,2.031v.005l.649-2.02,1.281-1.426,3.043-3.993.249-.3-.087-1.992h0Zm219.69-3.443,1.64.443.085-.079-1.615-.438-1.83-.857-.624.109-.988-.2-4.086-1.653-2.75-1.3-.276-.846-.515-1.223-1.174-1.043-2.69-.889-1.089-.7-4.368-.389H8348.9l-1.341.287-.859-.027-.03.044.846.027,1.338-.287h1.9l4.368.389,1.089.7,2.69.887,1.171,1.045.521,1.223.273.846,2.753,1.3,4.086,1.653,1.007.183-.008.036.544-.093Zm-236.89-3.278.315,1.3.222.249.005-.005-.216-.241-.312-1.294-.651-.35h-.005Zm3,1.524.008,0-1.248-.315h-.008Zm-9.559-5.378.123.616.493.668,1.932,3,.005,0-1.927-3-.493-.668-.125-.613-.484-1.122-.006-.005Zm203.6,3.834.02-.052-2.107-.914-.7.405-1.01.266-.694-.276.161-.7.312-.8v-1.119l-.2-1.245-.66-.4-1-.148-.512-.246-.055-.411-.509-.525-.92-1.292-.829-1.667-.574-.493-.006.005.566.484.832,1.669.879,1.333.512.528.055.408.512.246,1,.148.659.4.194,1.245v1.117l-.314.8-.159.7.7.282,1.013-.268.7-.4Zm10.14-4.34,1.064.955,1.043.318,1.188-.052.815-.526.014-.022-.782.506-1.186.055-1.045-.323-1.064-.952-1.7-.509-1.234.246-.906-.208-.779-.055-.274.194-.632-.025-.908.457-1,.64-1.1.5-.024.03,1.078-.484,1-.64.908-.46.63.027.271-.194.783.055.908.205,1.231-.244Zm-26.731-1.809.167,1.2h.011l-.164-1.2-.293-1.163-.008,0Zm-187.932.769-.706-.687-.005,0Zm-5.919-1.656-.695.7-.884.2.036.011.947-.219.7-.7.873-.307-.049-.005Zm-.156-14.192.022,1.393.424,1.393,1.01,1.393.769,1,1.043.8,1.74.755.7.164.093,1.043-.137,1.089-.6.6-.569.862-.43,1.043-.446,2.02-.06,1.325.093.055.008,0,.063-1.39.446-2.017.433-1.045.569-.859.6-.6.134-1.086-.1-1.045-.7-.159-1.74-.761-1.045-.8-.769-1.007-1.01-1.39-.433-1.393-.019-1.393.118-.63.077-.435.813-2.195,2.863-1.973-.315-1.984-.041-1.221-.7-.8-1.393-.323-.364-.553-.159-.542,1.018-1.223-1.231-.963-.561-.95-1.71-1.262-.184-.435,0-.005-1.53-.052-.077,0,.008.014,1.53.049.183.435,1.716,1.259.528,1,1.234.961-1.023,1.221.156.542.364.553,1.393.323.7.8.042,1.218.317,1.979-2.863,1.97-.81,2.195-.077.43h0Zm188.528,7.893,3.2,3.35.351,1.713.041.676.008,0-.049-.7-.351-1.708-3.2-3.352-.389-1.382Zm-196.054,5.3-.966.383h.014l1.01-.391Zm104.023-7.545-.392.542-.325.7-.906,1.409,0,.008.873-1.344.328-.7.389-.536.228-.572v-.005Zm90.852-1.122.7.542-.006-.016-.692-.542-2.534-.64-.651.367-.591-.375-.923-.81-1.6-.657-.175-.348-.578-.58-.317-.074-.213.348-.463.5-1.647.629-.656-.257.014.011.653.26,1.647-.627.463-.5.208-.348.317.077.574.58.179.348,1.6.654.925.81.589.375.651-.364Zm-207.523-5.591-1,.991-.476,1.174-.285,1.043-1.683.985-2.644.348.046,0,2.663-.345,1.683-.993.285-1.043.474-1.174,1-.991.638-.32v0Zm196.588,3.142.544.5-.55-.5Zm-1.688-2.219.99,1.04-.011-.014-.988-1.043-.648-.279Zm-12.271-7.386.7,1.636,1.2,2.014-.06.531-1.429.826-.808.348-.952.7-.81.966-.7.438h.008l.7-.435.808-.966.952-.7.8-.348,1.429-.824.06-.534-1.193-2.017-.7-1.636.164-.3h-.009Zm-3.456,7.348.386.071-.392-.077Zm-159.005-.512.082.044-.052-.033-.312-.728h-.027Zm91.61-3.881.848,1.024.7,1.5.021-.03-.679-1.461-.851-1.024-.6-.534h-.035Zm82.712.118-1.508.474-.566.088.569-.088,1.511-.474.717-.539Zm-209.978-1.423-.435.509-.43.356.03.038.446-.364.44-.52.613-.079,1.045.2,1.39.06,1.4.342-.019-.019-1.429-.348-1.39-.066-1.045-.2Zm301.48-.791-.058.071,3.892-.766.024-.06Zm-162.626-.7.012-.005-1.076-.359-.06-.008Zm-145.354-2.362,2.438.186,1.763.514-.017-.016-1.784-.526-2.43-.189Zm151.889-2.728.375.276.525.192.014-.008-.489-.178-.4-.3Zm40.606-.186-.875.43.011.011.895-.435,3.243-.6-.017-.008Zm-196.954-3.276-1.519.95-.887.255.019.036.9-.266,1.524-.947,1.262-.3-.024-.025Zm37.1-12.367.468.23.477.859,1.045.977,2.175.7.66.394.465.662-.137.936-1.043,2.34-.137.7.14.233-.205.432-1.344,1.563-.118.55.446.9.37.742v-.1l-.317-.635-.446-.9.121-.553,1.341-1.563.205-.432-.139-.23.134-.7,1.045-2.34.134-.944-.462-.66-.668-.394-2.17-.7-1.045-.985-.477-.859-.476-.246ZM8261.862,1364.389Zm129.326-.545-.433.164-.03.06.372-.137.536-.082.094-.085Zm-142.15-.988.109.09-.061-.052.156-1.393-.052-.011Zm5.588-3.467.088,1.817-.109.974-1.316.6-1.116.051,1.138-.051,1.319-.6.109-.974-.087-1.817.137-.257-.022-.008Zm-6.4,1.111.539.868.021.005-.52-.835-.208-.93-.041-.025ZM8245.007,1361.124ZM8117.06,1358.4l1.07.107.345-.378,2.553-2.173.107-.422-.107.411-2.548,2.173-.348.383-1.067-.109Zm3.265-3.232h0l-.055-.2Zm.5-16.7-.416.4-1.24.484-.889.766v.977l1.571,2.534.553.5.027.941.758,1.185.785,1.481.088.941-.09.955-.405,1.344-1.36,3.131v.6l.016-.594,1.36-3.133.4-1.349.09-.95-.087-.941-.786-1.48-.761-1.185-.027-.941-.553-.5-1.574-2.534v-.977l.887-.766,1.243-.484.416-.4.742-.254,1.976.731-.011-.008-1.976-.731Zm-16.442,9.74.408.37.211,1.117.394,1.45,1.741,1.626,1.458.463.055-.008-1.448-.463-1.74-1.626-.4-1.456-.213-1.122-.433-.386Zm-4.135-.575.408.331.4.6.063.5.071.5.413.211,1.448-.109.008-.008-1.4.1-.413-.208-.068-.509-.088-.476-.4-.6-.427-.348Zm-3.837.4.416.616.868.646h.043l-.862-.643-.424-.632Zm287.437-3.481.982,2.422.035-.049-.035.044-.982-2.427Zm3.719-.359,1.1.318,1.313.944.405-.151,2.241-1.773,2.315-2.677.011-.027-2.239,2.592-2.243,1.773-.411.153-1.313-.941-1.092-.317-1.286-.1-.909.3-.568.446,0,.044.487-.38.911-.3Zm-2.692-5.99.271,1.694v0l-.269-1.7Zm-260.439,1.387.249-.131.8-.7,1.393.107,3.383-1.39.5-.668.377-.7.033-.312-1.311-1.374-.039-.506.175-.572.372-.452.777-.307.821-.6,1.845-1.713.64-1.486.2-1.612.035-1.2-.506-.958-.509-.618-.011,0,.506.61.5.961-.036,1.2-.2,1.617-.641,1.483-1.844,1.71-.827.6-.771.312-.375.449-.17.569.039.506,1.313,1.371-.033.312-.375.7-.509.668-3.382,1.393-1.393-.109-.8.7-.247.129-.818-.591Zm253.9-11.349.348.731,1.965,1.191,1.979.958.648.717,1.462.917.53.824.288.692,0-.022-.291-.7-.533-.821-1.461-.917-.646-.714-1.981-.961-1.965-1.19-.342-.722Zm4.661-41.477,1.74,8.678,2.876,8.3,1.043,3.993.419,2.121.347,3.065.1,2.151v1.2l0-.011v-1.2l-.1-2.151-.348-3.068-.418-2.118-1.043-3.993-2.874-8.3L8383,1286.75l1.122.509,2.633.189,2.091-.6,1.086-.085.969.194,1.439-.348,1.319-.14.7.78,1.226.7,2.438-.988,2.143-1.232,2.228.134.318-.6.553-3.1.659-.673,2.663.312.985-.561,1.045-1.527,1.568-.958h1.313l1.365-1.075.654.7-.011-.044-.671-.717-1.365,1.073h-1.313l-1.571.958-1.045,1.527-.985.561-2.668-.312-.663.671-.553,3.1-.317.6-2.228-.129-2.146,1.231-2.438,1-1.226-.7-.7-.78-1.322.14-1.441.348-.972-.189-1.087.088-2.088.594-2.633-.192-1.1-.5Zm30.611-5.657.947.509h1.617l1.046-.419.24-.588v-1.065l-.257-1-.011-.011.243.958v1.065l-.24.588-1.046.424h-1.62l-.936-.5Zm-31.132.364v0l-.689-.8Zm-6.168-4.061.694.12,1.254.465,1.688,1.045,1.319,1.023-.05-.057-1.324-1.045-1.688-1.043-1.248-.463-.665-.115Zm-206.776-13.068,2.37-.895,1.7-.378-.022-.016-1.773.391-2.367.895Zm200.522-4.316,1.6,1.067-.011-.016-1.593-1.062Zm-.949-2.326-.02-.047-3.333-.137-3.134.129-.99-.109-2.994-.974-2.893-1.576-1.932-.917-1.6-1.026.027.033,1.626,1.045,1.932.92,2.89,1.568,3,.977.99.109,3.134-.129Zm35.839-33.951.058.107-.6-1.948-.03-.011Zm-457.251,447.306-.169-.26.017-.345.167-.093-.109-.214.26-.033-.049.255.027.183-.039.506Zm427.036-1.2-.43-.832-.082-1.847.41-.906.269-.285.717,1.045,1.5,1.522-.651,1.045v0l-.178.807Zm36.718-3.4.4-.375.238-.484.027-.7-.266-.427.181-.159.882.722.227.783,0,0-.7.983Zm-15.487-6.823.187-.4,1.023.588.378-.3.152-.348,1.142-.309.027,1.1-.106.394-3.087.531Zm14.25.03-.436-.7.545-.575,1.681,1.349-.384.8v.005l-.265.3Zm-155.275.515-1.7-.558-1.716.238-2.438-1.045-.887-.186-.807-.416-2.031-3.27-1.634-1.393-1.743-1.084-1.792-.06-1.793.12-1.579-.668-3.224-2.236-3.412-1.787-1.448-1.163-.662-.788-.774-.523-1.951-.514-1.763-1.218-.8-.088-1.716.148-.887-.088-.887-.432-1.708-1.426-1.1-1.979-.285-.878.771-2.263.923-2.181.813-.6.944-.443.572-.64.484-.8,1.759,2.285.786.553.8-.126,1.409-.818.118-.9,1.56-1.136,1.977-.019.916.208.479,1.045.752.315.871.137,2.873,1.951.81.317.811.057,2.23-.818,1.716-.315,3.588.452,1.938-.49,1.354-.06,1.979-.75,1.517-1.253.79-.312.849-.093,2.059.085,2.063.285.868-.3.723-.824.843-.372.919.249,2.381-1.393,1.046-.1,1,.542-.89.947v-.03l-1.023,2.173-.5.829-3.643,5.3-.419,1.221-.26,1.33-.378,1.163-.506,1.092-.477,1.393.088,1.571.173.769.438.5.72.474.553.731-.849.662.931,1.33.794.783.109.788v.785l-1.653,1.475-.648.813-.4.985-.17,1.013.178.914-.052.909Zm-46.243-1.6-.063-.906.175-.268,1.152.413.348.84.055.348.006.008-.726.214Zm208.377-.192.81-.323.566-.348.273-.416,1.35-.731.89-.958.963.651-1.2.435-1.891,1.672-1.333.156Zm-16.095-3.185-.085-.736.156-.435.522-.044.7,1.393-.624.534-.271.079Zm10.859-.493-.512-1.62,2.463-2.378.591.219.351.613-.058,2.137-.577,1.352,0,.025-1.344.7Zm-762.265.7-1.083.1-.58-1,.528-.416,1.215-.1.58.443.257.758-.061.348Zm.917-.211v0Zm757.382-.739-.421-.671.621-1.363,1.338-.777.61.205-.061,1.015.112.3-1.2,1.45Zm-10.7-2.5.249-1.045.644-.441.694.348.1.465-.188.8-.009.005-.561.285Zm-.41-4.751-.425-.7.378-.58.553-.465.255.482.5.783-.7,1.2.014.014-.859.575Zm7.761-.123-.232-.3v-.753l.17-1.182.533.285-.074,1.948Zm6.051-1.9.539-.378,1.74.72-.087.454-.832.534-1.448.118Zm-5.58-.049v-.014l.011.022Zm15.922-1.4,1.347-1.316,1.749-.061v1.339l-2.611.73-.006,0-.694.071Zm-25.954-.687.651-1.459.887-.09.328.64-.7,1.371.014.008-1.013.922Zm13.259,1.078-1.576-1.319-.539-.594-.3-.588.646-.071.79.624,2.015.328.46.586-.556,1.223Zm-67.231-3.768-1.045-1.519-.233-.6,1.087-1.42,1.013,1.459,1.229.233.736.679.017,0,1.59,1.847-1.283-.454-1.369,1.281Zm63.135-.52-1.292-1.015-.481-.895-.785-.539-.214-1.2.947-.49.41-.049.979,1.459,1.527.167-.117.9.484,1.155.167.717v0l-.446,1.281ZM7639.8,1640l-1.5-1.2-.216-.884.03-.413.941-.328,2.031,1.349,0,.005.958.129,4.814-.282,1.281.205-.134,1.393-.911.561-2.835.375Zm742.922-2.663-.479-.17-.235-.378.3-.175.347-.758.323-.208.477.1.3.307.241.837h0l-.6.471Zm15.194-1.5-.408-.465-.443-.219-.856-.036-.632-.8-1.6-1.089-.3-.654-.055-1-.674-.742-.624-1.412-.594-.391-.331-.7-.021-.3-2.326-.211h-1.922l-1.628-.8-.506-2.088-.969-.564-.726-.6-.6-.829-1.53-1.524-1.691-1.273-1.634-.846-1.74-.556-1.393.651-.827-.148-.164-.443,1.738-.878,2.413-1.68,1.694-.553.826-.071,1.561,1.472-.006-.016.854,2.088.8.7,1.683.829.791.109,2.868,1.505,3.33.3.433.435.41,1.155.674.909.172.7-.348.783.49,2.395.843,2.269,1.262,1.1,1.579.348,1.5-.049.377.452-.153,1.981-.635.777-.515.189Zm-58.384-2.646-.562.427-.694-.172-.425-1.1.047-.391-.378-.66-.325-.3-.92.876-.58.164v-.8l.856-2.206.4-.372.7.725.575-.268.435-1.193.025-1.188.2-.345.729,1.765.016-.005.187,2.217,1.064.416,1.418,1.99-.118,1.018-.3.348Zm79.809-2.354-.268-.506,1.185-.635.589-.974-.474-1.2-1.64-1.773-.082-1.262,2.51-.534,1.48,1.1.753.074-.293,1.043.128.35.115,3.172-.7.446-.112.876-.147.312,0,0-1.439,1.078Zm-79.212-3.27-.348-1.273.4-.068.375.145.4.479v.49l.162.526.418.629.293.7-.747.208Zm-739.559.033-1.844.085-1.155-1.045-.265-1.075.58-.668h1.631l3.854,1.932v0l1.242.769-1.891.167-.624.378Zm-7.7-3.574,2.178-.769.638.468.474.531.276.7-.537.487-1.552.052Zm11.319-.424-1.434-.67-1.861-1.708,5.254,2.072,2.777,1.552-.714.233Zm4.737,1.245h0l.005.005Zm729.866-2.042.522-1.9.633-1.108.9-.517.38.873-.071,3.1-.421.575h0l-.589.148-.5-.1-.454.088-.448.367Zm-722.676.016-.892-.7-.348-1.314.525-.446,1.393-.266,2,.249,1.286.944v1.2l-.5.679-.03-.014-.3.186Zm435-.192h-1.5l-.058-.78.233-.542.29-.553.914,1.089,1.448.2v.569l.024-.005-.348.255Zm347.831-2.274.345-.591.027-.246-1.592-1.086.188-1.409.188-.348,1.18.736.26,1.226,1.4,1.333-1.576.46Zm2-.386.017-.005-.009.014Zm-353.573-1.355-.5-.476.493-1.346.663-.159.041-.958.695-.961,3.262-.78.736.654.156.944-1.946,2.052-.747.266-.005-.005-.544,1.19Zm112.629-.917h-1.042l-.8-.728-.635-1.281-1.013-1.557-1.045-1.844-.109-1.675-.178-3.7.3-.8.43-.775.211-1.658-.145-1.445.3-.517.6.517.449-.194-.027-.747.134-1.36-.786-1.138-1.33-.386-.128-1.2.14-1.166.695-.788.238-1.043v-3.191l-.938-1.177-.348-1.787-.484-1.141-.873-1.152-.988-.936-.61-.906-.137-2.365.35-1.979.312-.851.317.123.977.985.8.219,1.587.235,1.56-.315,1.916-.9,1.844-1.086,2.671-3.2,1.647-.651.846-.846.293-1.138.7-.3.821,1.106,1.023.118,1.576.917.679.87.583,1.043.558.465.6.263.087.249-.473.246-.542,1.2.3.348.9.676.027-.008.758,1.27,1.691,5.2.164,1.122-.348,1.147-.432.813-1.683,2.6.246,2.146.624,1.33.088,1.467-.312,1.82-1.043,11.138-.506,1.962-.32,1.7-1.147.517-1.483-.542-1.875-.958-.867.06-.87.331-.717-.285-.695-.542-.509,3.8-.846,1.535-1.286.988-1.209.057Zm-5.358-2.162-.038-1.16.123-.348,1.117.49.578.446,0,.016-.873,1.913Zm268.724.249-.8-1.07L8424,1613.6v2.36Zm-37.635-1.352-1.095-2.195,2.811,1.825-.671.654Zm33.812-.843-.77-.769-.169-.416.987-1.7,1.766.057.93-.38,1.155-.542v-.807L8424,1609v3.5l-.392.017-1.562,1.91Zm-30.459-1.7,1.248-.8-.466,1.3-.782.826v0l-.7.224Zm-316.872-2.756-1.519-.328-.452-.49-.348-1.946-.695-.618-1.007-.276-.881.5-1.152,1.045-.613-1.045-.974-.192-.364-.618v-.8l6.245-4.729,1.809-1.045,3.829-1.221.583.183-.5.723.039.326.476.348-.109.561-.484.484-.2.906,1.445.649,1.527-.588.81.186.8.315.192,1.237-.7,1.393-.993,1.393-.84,1.535-.73,1.757-1.363,1.045-1.229.621Zm-515.815-.167-.377-.348.348-2,.919-.471.925.81.022,1.393-.014.03-.668.936Zm773.6-.673-1.371-.974-1.136-2.417-2.416-2.748-.038-.8.922-.6,1.987-.427.8.443.518.465.161.523-1.125,1.045-.229.476.867.947v.38l.348,1.833.424.7,1.09.553.752.189v.005l.331,1.092Zm92.467-2.14.079-.936.81-1.713-.073-4.228.476-2.3.247-.086v10.188l-1.281.116Zm-12.616-5.9-.178-.619-.033-.78-.389.036-.312.846-.276.383-.887.079-.975-.523.049-1.122-.2-1.308.09-.457,2.663-.112.777.963.944-.561.386-.6,1.138-.375-.169,1.018,0,0-.571.662-.425,1.138-.227,1.628-.882.038Zm-321.541-2.406-1.516-.255-.37-.348.041-1.177.118-.52,3.109-.238,2.512.84,1.352,2.258.1.389-.429,1.089v0l-.274.224Zm327.66-3.733,1.086-1.19,2.022-.734.654-.09.887,1.185-.106.818h.014l-3.481.6Zm-3.325-6.839,1.817-.657.846.473.6.561.328.736-1.71.517Zm-14.083-3.265.017-.8,1.046-1.617.571-.482,1.448.129.823,1.114.194.528-.271.892.076.879-1.935.7Zm-160.772-1.207-.214-.3.263-.747,1.374.446v.419l-.348.246-.011,0-.671.172Zm-85.479-5.744.285-.671.654-1.349.8-.454.345.405-.372.772-.5.452-.008.005-.5.909Zm12.039-9.592-1.631-.8-.8-.851-.52-.591.348-.791.744-.824.118-.651-1.74-.731-.8-.49v-.862l.6-1.338-.274-1.108-1.012.057-.78-.167-.106-.575.575-.736.744-.961-.019-1.07-.9-.454-.81-.868-.328-1.177.629-.8,1.023-.52-.75-1.21-.509-.027-.4-.266.348-.556.791-.837,1.1-2.515,1.538-1.185,2.72-.766.733-.35.676-.887.747-.569.908.077.838.348.517.364.389-.383.375-1.1-.23-.969.118-2.663.487-1.508.783-.09.72.835-.03.733.265,1.741.006,1.144-.395,3.01.288.876.547.613.251.67.457,7.975-.084.638-1.85,3.188-.413.93-.09,3.938-.31,1.045-.659,1.043-1.166,3.358-1.007,1.505Zm125.9-26.655.7-.17.641-.036,2.66.646-.014.011,2.058,1.393Zm-105.807.6-1.91.5-1.171-.107-.325-.887.268-.514,1.817-.109.566-.255,1.108.118.561-.725.5.8.061.463-.348.525.14,1.182Zm96.656-3.093-.64-.438-.452-.542-.238-.755.009.011,2.786.575,2.044-.266,1.85.348,1.152.654.273.323-1.491.041L8284.7,1538l-1.913.662Zm-.884-4.335-1.954-.427-2.176-1.1-.44-.35,2.187-.323,2.031.323.624.8,5.492.64,2.006.375-.006.011-1.045.216Zm-2.879-3.361-1.01-.643.074-.542.312-.906,2.31.109,3.512.64.861.747-.268.35-1.319.564-2.384.055Zm4.472.32h0l-.017.005Zm-24.692-13.322-.208.1-3.7-4.568-.4-.892,1.325,1.065,3.571,4.075v.005l.213.3-.021.211Zm3.391-.068-.988-.955-.58-1.045,1.521.772,1,1.554Zm-3.812-3.733-.717-.931-.129-.416,2.493,2,.238.736Zm-.351-5.569-.9-.731-.643-.876-1.259-1.084-.425-1.242-1.88-2.542-.282-.7.937,1.043.779.649.644.156,1.637,1.617,1.609,2.091,1.915,1.8-.4.052-.381.246.009,0-.389.558Zm-10.243-6.59-.465-1.864-1.155-3.016-.15-.851.6-.837-.03-.857-.818-2.655.7-.435.408-.057.167,1.847.372,1.043,1.113,1.3-.227,2.143.227,3.054.228.673.085.7-.017.038-.118.818Zm5.175-1.771-1.272-.32-.268-.635.183-.52.274-.509.963.068.146.5,1.015,1.327.381.939Zm-2.021-5.09-.233-.671-1.532-.219-.925-.928-.189-.416,1.314-1.043.694-1.664.887,1,1.076,1.875.577.523,1.072,1.883.009.019-1.864.454Zm-240.188-19.365-1.333-1.527-.31-1.415v-.375l1.568,1.045,1.615,2.132-.528,1.88Zm1.541-.14,0-.014v.019Zm-13.788-73.271h-1.122l-1.064.252.233-2.088,2.088.255.96.569.134,1.163-.662.254Zm-8.281-6.089-.107-.4,1.571-.889h.323l.137.276-.531,1.527Zm-40.516-14.688-1.678-.5-1.771.49-1.073.769-.5-.624v-1.281l1.289-1.527,3.448-1.158,3.03-3,1.483-1.834.594-1.045.725-.662.944-.246.493-1.149,4.2-4.614.348-1.045.211-1.9.345-1.833,3.423-1.188,1.637-3.867.452-.306,4.772-.7,3.539.063,3.52.758,1.8.068,1.806-.263,1.426-1.045,2.436-3.788,1.363-1.675,1.568-1.511,1.461-1.74,2.373-3.2-1.6,1.106-1.937,1.74-1.125,1.018-3.571,1.023-1.541,1.043-2.7,2.351-.515.194-4.069-.569-3.026-3.046-1.93-1.251-.8-.148-.83.375-1.762.38-1.8-.06.919-1.415,1.25-.794-2.786-.547-.78-.43-.886-1-2.195-.167-1.043.249-1.765,1.314-2.786,1.393-3.361-1.932-.654-.846v-1.639l-.506-1.3-.928-.454,1.19-1.7,1.439-1.13,3.166-1.125,4.792-2.674,2.69-1.141,2.5-1.97,1.045-1.2.747-1.65.745-2.022,1.045-1.653-1.045-.394-.463-1.242.126-1.264.474-1.122-.43-1.412-.758-1.475.041-1.152.206-1.232-1.927.066-1.921.386-1.741.87-1.688,1.185-1.5.219.022-.947.651-1.174,1.7-1.678,1.817-1.393.643-1.043.512-1.234.906-.988,2.378-1.872,4.554-2.11.679-.123,1.787.246,1.76-.326,1.538-.758,1.538-.159,3.451,2.189-1.042-3.391,1.524-.816,2.206,3.068.818.323,1.74-.446-.667-.517-.78-.033-1.023-.463-.859-.985-1.431-3.134.08-1.861.966-1.938,1.064-1.787-.895-.348-.717-.7-.2-1.8.279-1.585,1.913-1.4.569-2.129.235-2.351-.314-1.081-1.908.17-.927.443-.827.7-.851-.044-2.351-2.6-1.338-1.973-2.406-4.179-.35-2.512,1.924-5.435,2.972-3.478,3.481-1.223-.679-.233-5.334-.049-1.757.432-1.631,1.431-.919.441-.966.161-.881.7-.865.985-.9.632-1.782-.167-.862.213-.619-.569-.522-.941-.679-.255-.758.293-1.6,1.27-1.625.747-1.965-.8-2.575-1.5-.509.55-.569,1.393-.328,2.159-1.831-1.877-1.554-2.512-.525-1.585-.039-1.784.846-.7.922.635,1.363-4.247,2.723-5.569.96-1.634.67-2.135-.109-1.393-.6-1.185-2.534-2.687.033-2.2.268-2.485.7-1.5.287-.285,3.363.038-1.313-.772-2.613-2.258.049-.8.613-2.088-.285.211-.561.969-1.073,2.34-.651.542-1.85.553-.347,1.147-.3.3-.925.126-.285,1.073-.205.068-.266-1.152-.024-1.913.367-1.765.695-1.393,2.715-3.133-1.319.977-2.991,2.909-1.53,1.91-.411.646-.121.542v.624l.7,3.341-.2,1.541-2.578,10.142-.49,1.015-.446.525-.424.12-1.27-.194-.564-.758v-.854l.235-1.289,1.073-4.8.462-1.335.7-1.251,1.516-2.184-.039-.148-1.01.427-.432-.137-.312-.435.2-6.516.827-2.154.307-3.131.695-2.7.824-1.97.627-2.523.944-1.122.255-1.724,1.045-1.866.813-1.954-.44.194-5.222,5.077-1.333.922-1.817-.246-1.393-.569-1.086-1.2-.484-2.31-1.341-.057-1.144-.4v-.315l1.48-1.259,2.37-.43,2.222-2.02-1.976-1.371.167-.435,1.719-1.169,2.192-3.922.441-3.621-1.043-1.7-.377-1.122-2.088-1.248-.348-1.6.244-.9.695-.876,1.045-.679,1.615-.654-1.464-.7-.547-.826-.416-1.2-.039-.7.761-3.1.441-1.281.867-1.634,3.917.09.451-.723.446-.027,2,.662-.3-.7-3.279-3.9-.3-.744.936-2.11.063-.941-.137-1.007.269-.769,1.045-.348,3.164.03.783-.348-.351-1.023-.739-1.344-.145-1.13.169-1,.041-2.017.145-.895.753-1.341.618-.4.769-.233,1.738.446.663.539.766,1.273.561-.1,2.165-1.393.651-.2.887,1.606,3.7-1.281,4.967-.572,2.983-.846,3.134-.307,2.931-.963,3.106.443.109.558-.164.777-.761,2.088.044-.049.129,2.356-.178.717-.348.881-1.141,1.642-3,2.34-5.493,5.361-3.251,2.644-.446,1.273-.244,1.765,1.943.348.755.6-.462.889-2.879,3.106-.846,2.783,2.2-.1,1.817-.539,3.621-1.74,3.4-1.3,1.634-.052,3.177,1.045.723.033,1.349-.479,1.366-.088,9.242.323,2.569-.608,1.7.728,1.417,1.806,1.352,3.333-.041.553-.818,1.511-1.508,1.894-1.3,2.6-.375,1.393-.254,1.535-.4,1.415-2.581,6.612-2.509,3.648-1.119,2.583-1.4,2.05-1.333,1.292-1.417.859-4.111.917-1.152.657-1.374,1.125-1.439.561,1.686-.071,1.672-.624,3.049-.224,3.511,2.151-.329,1.76-1.393,1.393-3.207.219-3,3.084-1.349.947-1.428.465-1.787-.14-3.243-.818-1.42-.862,1.281,1.393,1.456.731,8.443,1.74.512-.183,2.69-1.817,3.588-.027,6.828,3.344,1.962,2.556,2.819,3.64,1.532,1.42,1.108,1.283.7,1.921,1.322,6.327,1.511,6.144,1.979,6.612.9,1.828,1.177,1.281,5.96,2.936,1.33.977,2.313,2.819,2.233,3,2.088,2.3,2.241,1.858-1.086.961-.744,1.511.561,2.05.908,1.954,1.793,3.131,1.582,3.393-.578-.509-.618-.279-.837.085-.818-.161-1.513-1.067-1.451-1.308-2.887.531-1.606-.238-1.39.038,2.641.753,2.89.055,6.368,5.687,2.151,3.361,1.281,4.417-.873,1.979-1.355,1.283-1.262,1.459-1.187,1.653,3.536,2.414.764-.068.78-.348.75-.821,1.264-2.006.651-.7,2.2-.257,1.848.156,1.836.446,1.618-.14,3.254.859,1.675.777,4.146,3.478.9,1.907.413,2.438.049,2.715-.695,2.469-.8,2.228-.492,2.868-.348,1.043-.493.81-2.192,2.25-1.456.928-.619-.405-.659.052-.071.545.695,1.147v1.393l-1.3,1.023-1.319.435-2.208-.542-3.062,1.9,2.2.98.446,1.043-.553,1.825-1.39.813-1.538.35-1.573.085-1.3.446-1.25.865,1.568-.454,1.089.4.695,1.53.622.441,3.065.651h1.894l3.659-.369h1.757l.621.279v1.264l-.266,3.1-.484.64-4.849,2.592-1,1.806-.274,1.092-2.832-.192-1.33,1.155-2.3.769-1.779.815-1.741,1.043-1.428.307-6.171-1.221-3.728.1-5.052,1.067-1.3-.178-1.946-1.021-2-.7-2.3-.3-1.984-.947,1.237,1.812-2.75,1.74-1.272.35-1.316-.057-2.69.473-2.5-.257.377,1.234.668,1.084-.545.468-.569.118-4.743-.813-.673.151-.588.753-1.741-.405-1.677-1.262-1.785-.857-1.869-.405-1.489.14-6.117,2-1.221,2-.613,2.832-.881,2.512-1.445,1.932-1.716.255-1.615-1.341-3.065-1.475-1.042-1-.351-.06-.348.35-1.2.452-1.242.022-1.921.4-3.344,1.2-1.349.81-2.9,2.244-.594.621-1.043,2.252-1.609.394Zm60.652-11.981-3.153-1.929-.728.085.72-.881,1.959-.717,1.106-.955,2.542.922,1.185,1.065v.008l-1.264.818-.4.961-.307.375-.834.249Zm-128.782-21.422,1.886-2.917,2.534-1.475.266-.405-.83-.2-4.822,1.021-1.669.876-1.675.252.772-1.333,2.159-1.823,1.155-.862.7-.345.807-1.076,2.277-1.223-7.326,2.515-1.927-.307-.452-.7-1.5.348-.572-1.7,2.222-2.575,1.294-1.114,1.538-.6,1.48-.868.55-1.043-.7-.35-4.433.268-2.124-.224.109-.84.394-.93,2.2-1.59,1.2-.254,1.043.151,1.045.41.845.534,2.5-.307-1.045-1.021-.181-2.072-.8-.7,1.015-.966,1.166-.58,1.951-1.992.7-.307,3.848-.484,4.154-1.045,4.116-1.45-2.115-.815-1.01-1.076-1.625,2.17-1.171.827-3.3.446-1.045-.241-1.475-.671-.46.255-.424.515-2.192,1.043-2.3.257,2.674-1.946,3.394-3.311.752-1.045,1.075-1.823-.35-.816-.7-.463,2.46-3.766.868-.7,1.571-.109,1.158-.6h.509l.457-.227,1.013-1.127-1.56-.72-1.615-.372-4.989.394-.654-.088-.619-.348-.405-.5-.3-1.284-.35-.287h-1.122l-1.117.391-.774-.038-.758-.564,1.215-1.319-1.568-.315-1.579.26-1.319-.405-.039-.829.6-.826-.786-.788-.161-.993.832-.493.906.161,1.858-.739,2.384-.348-2.044-.728-.815-.624-.038-.952.161-.818,2.365-1.393,2.515-.608-.186-.909.178-.988-2.545-.287-2.515.7.271-1.891.6-1.71.118-1.122-.118-1.212-1.179.517-.137-1.7-.506-1.169-1.738.807.041-1.549.506-1.084.908-.465.906.205h1.683l1.626-.818,2.345-.208,3.719.249,2.561,2.3.663-.411,1.023-1.453.476-.159,3.864.632,2.395.832.641-.257-.348-1.606-.827-1.122,1.045-1.461,1.259-1,.849-.493,1.94-.621.851-.58.561-1.894.9-1.579-4.874.818-4.644-1.872.733-1.322.98-.753,1.688-.575.164-.7.851-.575,1.417-1.516-.522-1.987.282-1.453,1.016-.947.317-1.36.454-1.007,2.066-.348,1.984-.931.717.09,2.351-.216.791.378-.187-1.653,1.442-.219.558.328.25,1.174.654.747.205,1.3-.44,1-.739.769.67.785-1.042,1.429,1.119-.608,1.6-1.39-.087-1.136-.269-1.439-.443-1.292.2-1.431.9-.895,2.365-.452-.966-1.623.859-.145.936.348,1.393,1.262,1.437,1,1.483.783-1.431,1.571-1.757,1.092-.67,1.185-.039.027.588.9,1.18.227,1.045-.851,1.261-2.685.878-.164.966.216,1.9-.348,3.38-1.253,1.53-.03.049.011,2.129.662h1.587l1.393,1.921.753,3.024,1.759,2.978,2.3,2.586.093,1.576-.827.843-1.716,1.045v1.125l1.133-.564.98-.263,2.356.249.824,1.138.572,1.7.3,1.393-.2,1.519-.638-.484-.648-1.355-.717-.624-.829-.348.375,1.866-.153,2.49.348.235,1.122.041-.739,2.54-1.53.7-1.779.257-.433.9-.323,1.155-.931,1.721-1.229.974-1.519-.2-1.371-.712.588.84.285.931-1.111.348-1.163-.189-.569.61-.039,1.171.394,1.513.78,1.07.618,2.411.518,2.671.8,1.609.167,1.99-.12.98.147,1.76-.347.621.249,1.645.944,3.393.416,1.891.263,4.11-.667,1.532-.9,1.459-.588,1.721-.446,1.855-.273,2.988-1.937,3.478-.824.868-.955.534,2.085,2.436-1.705,1.081-1.855.348-2.055-.61-1.281.077-1.174.788-.457.474-.369-.227-.772-1.99-.563,2.055-1.183.654-2.03-.14-3.391.553-1.3.58-.545.914-.4,1.045-.531.619-.6.328-2.619.774-.518.315-1.215,1.694-1.587.98-1.319.3-1.169-.985-.479-.594-.542-.3-1.8.047.561.309.367.7.178,1.333-.206,1.311-.887.662-1.045.12-1.667,1.349-2.208.35-1.193,1.242-7.31,2.088-.413.019-1.007-.531-1.092-.238-1.086.167-3.054,1.174Zm52.374-64.6-.566.408.052.008.588-.424.875-.443-.043-.005Zm-11.636-7.167-1.045,1.39.367.7.348.909-.563.654-1.716,1.5-.269.583-.432.3.022.011.462-.317.271-.58,1.713-1.5.566-.654-.347-.909-.345-.7,1.043-1.39,1.256-1.352-.065-.005Zm-9.121-9.231.025-.016-.871-.224-1.144.038-.008.008,1.095-.036Zm174.56,75.89-1.322.38,0,0-.493-.769v-.476l1.363-.411,2.417.167,1.472,1.33.315.424.118.452-1.875.525Zm13.7-32.687-.265-.416.465-1.393,2.211-2.307v2.827l-1.5,1.776v0Zm-138.081-3.982-.8.041-1.223-2.121-.222-3.175,1.6-.827,2.217.049,1.776,2.433-.014,0,.635.471,1.593-.077-.526,1.045-1.74,1.163-1.177,1.144-1.426.958Zm140.814-1.73,1.8-1.609,1.231.055-2.792,1.85Zm4.9-3.3-.64-.35,3.394-1,2.148-.309.383.134-3.88,1.327-1.393.205Zm7.551-1.637h0Zm-.011,0h.011Zm.011,0-1-.307-.165-.3.813-.178,2.54-.041.786.255v.153Zm6.439-1.062.129-.246,1.864-.542.64.109v.005l-2.118.859Zm7.7-3.087,1.3-.506h.7l-1.007,1.092-1.39.085ZM7877,1287.243l-.542-1-3.068-.46,1.275-1.007.621.3,2.17.044.6.416.118,1.9,0,0-.06.731Zm80.488-4.124-1.045.307-.288-.09.594-1.179.7-2.726,1.264-1.084,1.606-2.841,1.27-.783.435.109.282.268.591,3.188-.815,1.122-.3,1.034-3.048,3.254Zm270.061-6.294-.427-1-.085-.84.375-2.906-.068-.914.826-1,.129-1.453,1.461-1.527,1.3-.06.408,1.3.624.892,2.187,1,.325.449.2.63-1.019,1.229-.345.632.32,1,1.617,1.1,0-.008.375,1.74-.4.887-1.7-1.475-1.705.022-1.016,2.266-.758.1Zm-32.008-3.38-.887-.265.477-1.275.624-.468,2.243.832.7,1.634.041.526.011.014-2.317.049Zm-.522-8.232.093-3.133.255-1.234,3.021-.3,1.549,1.552,2.672,1.626,1.809-.1,1.231.67.3,1.043.106,2.307-1.289.671-1.429-.222-1.942.876Zm-39,2.143-.8-.6.263-.643.764-.49.632-.071.958.3.216.941,0,0-.583.64Zm32.875-3.53-.12-.668,1.073-1.355.695-1.538,1.792-2.367,1.046-2.786.394.041-.46,2.479-2.353,6.883-.46,1.273-.024.005-.67.148Zm-35.245-2.159,1.653-3.946.7.09-.717,1.067-.208.75-.287,1.489.128.777,3.769.216-.441.7-3.828.463-.588,1.587.008-.011-.35.52Zm52.045-.194v-1.505l-.55-1.74-.1-1.5-.651-2.392-2.685-.651-1.045-.088-1.456.446-.348-.172-1.743-3.281.293-3.637-.928-1.839-.129-.835.02-.925-.767-.766-.928-.405-.451-2.061,1.064-.5,2.644.241.774-.14.7-.432,2.137-3.4-.065-.75.225-.974,2.31-.348,1.043,1.319-.208,2.11.128,2.69,1.394.731.542.107.585-1.984.411-.966.553-.542.188-1.82-.325-1.114-.7-.835,2.616-2.258,2.7-1.8,1.579-.1,1.584.441,1.476.6.8.523.443.84-.987,1.992-.277,1.086.679,3.6-.06,0,.038,2.679-.394.78-.575.514-1.508.545-1.309.758-1.168,1.33-.433,1.9.911,1.393,1.656.761.427,2.638-1.366,1.3-3.508,1.292-.348,3.114.109,2.438-.065,1.773-.276,2.438-2.838,1.114ZM8175.537,1263.841Zm9.006-.884-1.891-2.148-.235-.569.988.348,1.231,1.125,1.007.238,1.393.947-.315.348-.014.008-1.01.276Zm-6.6-1-1.475-.244-.526-4.042.148-.238.742.285,2.545,1.891.887,2.061.049.566v.011l-1.571.348Zm33.442-.449.375-1.163.276-.424.879-.5.583-.72.232-1.127.544.6,1.618.252.793.348.663.534.539.826,0,.014-.575.394-2.317-.285-2.619,1.817Zm41.77-3.112-3.04-1.823.446-3.582.782-1.557,5.545,4.023.068,1.511-.747,1.721-.562.446Zm-69.916-1.439-4.015-1.99-.32-1.108-.561-.621-1.076-3.393.022-4.2,2.017-.531,4.406-2.014,1.015.318,1.065,1.043,1.226.06,1.773-1.459.351.088.618,1.371.775,2.958,1.226,3.3-.509,1.393.348,1.762-.348,1.836-2.438,2.129-2.734.1Zm-263.854-.109.008-.005-.008.008Zm303.574-8.421.824-1.864-.027-1.374.372-2.11.222-2.17-.061-1.45-.484-1.557-1.62-2.033-3.65-6.891-1.081-2.923-.753-1.223.545-.066,3.008,1.571.7-.2.739-.588-.9-2.252-.777-1.015-.522-1.527,1.757-.416,1.278.093.938-1.721-.545-2.783-1.365-.859-1.142-.378-2.189-4.414-2.279-2.293-4.075-8.883-1.488-6.144-1.391.588-.673-2.685-.484-2.553-.1-1.877-2.17-1.075-.088-1.322-.395-5.917-2.328-.8-1.506-3.333-.268-6.344-1.538-1.155-1.231.323.06-1.576.3-1.483-.72-5.917-.211-4.74h93.94l-1.288,1.768-3.7,2.022-1.883,1.647-5.117.085-4.871-.348-1.533.78,1.574.244,1.095.766,1.321-.323,3.1.38,1.59.419,2.045,2.682-1.5.947-2.605.731.979,3.777.8,2.54-1.043,1.53-.082,6.921-1.48.129-.627,2.852.46,1.45-.038,3.363.312,2.069.726,1.9-.326,1.973-2.337,4.611.047,2.159.424,1.281.314,2.039-1.064,3.913-.75,3.257-.895,2.731-2,3.265-.993,2.436-2.323,7.572-1.152,1.491-1.415,1.149-1.579-1.043-1.447-.575-1.766.068-2.767.87-4.154-.583-4.063.282-1.043.75.618,2.728-1.5.348-1.462-.775-1.294.925-1.073,1.01-2.118,2.4-.7,1.475-.181,2.786,1.114,2.479.985,2.9-2.534,3.481-1.415.118-4.13-.966-7.31,2.178ZM7948.7,1247.2l-.824-.643-.925-3.659.345-1.3.377-.635.419-.5,1-.2,1,.7.378.649.837,2.474.159,2.121-.169,1.21v-.005l-1.9.019Zm269.21-2.646-.462-1.56.752-.944.44-.8.317.022.433.873.249,1.333h0l-1.42,1.136Zm-284.724-1.36-.03-.331.561-1.363-.484-1.557.235-1.182-.233-.216-.484.167-1.784,1.877-.6.183-.065-.38.443-1.538.055-1.045.265-.643.482-.6.577-.446.468-.068.5.463,1.439-1.289,1.319-.692.008,0-.008,0,.544,3.445.531,2.132.039.725-.5,1.01-2.491,1.346Zm255.959-.044-.011-.022Zm-1.8-4.68-.1-1.74.348-1.56-.424-1.39.471-.9,1.343,2.088.383.985-.522,1.171-.282,1.368-.257.476Zm-250.177-.6-.285-.435-.156-.67v-1.221l.462-.878,1.959-1.322-.887-.471-.036-.348.509-1.1,2.088-1.716.563-.315.561.049-1.086,3.046-2.611,5.159v.016l-.317.287Zm339.32-11.8-.454-1.823-.109-4.7.276-2.337,3.292-8.459,1.467-.7,2.066-5.222.561-2.337.9-2.088.528-1.891.445-.764.961.348.43.348-1.016,1.1.118,1.426-.071.588-2.567,6.182-.694,3.993-.909.974-3.766,14.091h.022l-.78,1.368Zm-343.442-1.338-.186-.742.416-.5,1.713-.479.7-3.64-2.594-1.686-.134-.465.205-.8.3-.35,1.571-.848.665-.189.536.115,1.111.988,1.245,2.058,1.672.328,1.138.873-.266,3.957-6,1.508Zm8.092-1.374.014,0-.014.022Zm-13.437-6.8,1.489-1.853.966-.309.348.183-.7,1.076-1.171,1.136-.014,0-.859.151Zm375.592-11.486,1.188-2.025-1.141-1.39-.7-2.181-.895-1.675.7-1.88-.348-3.079.112-3.016,1.043-1.527,1.185-1.243,1.84-2.865,1.994-2.091,2.786-.936,1.259.865.545-1.9.9-.435.846.443,1.831,1.814-1.251.671-.73,1.995-1.013.348-.969.665-.348,6.267,1.771,2.37-.977.348-.887.7-.635,1.045-.648,2.255-2.438,1.275-.92.941-1.36,2.088-.7,3.029-1.391,1.292-1.552.307Zm-388.711,1.415-.088-.348.3-.952,1.016-.35.739.52.121.465-.269.5,0,.008-1.327.375Zm17.991.142-.559-.46-.747-1.3,1.669-.9.668.534.254.6v.673l-.285.564.011.011-.446.348Zm5.008-2.7-.3-4.143-1.937.534-1.56-.06-.857-.506-.6-.974-1.21-2.507-3.519-.991-1-1.4-.3-.837.126-.463.728-1.045.917.35.563-.227.348-.463v-.383l-.476-.9-.022-.279,3.6-1.141.317-1.787.78-.145.9.588,1.22,1.855.326,2.247-.021.052-.022,1.234-.266,1.459.348,1.541.079,1.1.638.348.383.506,2.833.564,2.63-.161.509.454.061.72-.416.791-1.5,1.439-1.787,2.329-.534.484-.572.022Zm-20.131-1.746-.514-.432-.523-1.7-.093-1.045.229-1.927-.052-2.31,1.719-.068.446.348.3,6.839-.033.3,0,0-.641.156Zm275.119-4.108.916-1.292,2.28-.6,1.341.2-1.478,1.281-.367.679h.014l-.615.651Zm-274.706-7.564-2.928-1.916v-.391l.238-.575.441-.457.459-.107.728.312,1.01-.5.808.164.993-.717-.011-.016,1.7,1.582-1.352,2.625Zm5.084-6.095-.454-.348-1.043-1.47,1.924-1.448.178-.816,1.316-.848-.112-.265-2.088-1.193-.824-.8.074-.419,1.007-.925-.473-.12-.323-.5-.583-.194-.178-.463-.106-1.223.156-1.256.61-.553.246-.591.247-.186.944.317.958,1.007,1.122-.386,1.294.186.027-.233-.955-2.471.17-.506.52-.572,2.991-1.773,3.73-2.98.9-.465.273.41.381,1.541-.066,2.058-.008.008-1.921,5-.753.126-.659,1.248-2.044,1.374,1.784.027.5.46v.985l-.348.569-2.307,2.271-1.587.859-1.713,2.367-.868.027-.851,1.5-.695.662Zm393.635-3.284-.711-1.308,1.447-1.992,2.211.107.758.422-2.644,1.141v0l-.273,1.771Zm43.68-2.78.118-.906,2.521-3.421.527-1.114-1.259-.5-1.045-1.193-2.3-1.39-.416-1.125.55-.088.507-.326.615-.944.285-1.087-1.839-3.185.938-.5,1.168.115,1.2.928,1.318-1.086.562-.161.92.389.93-2.11,2.214-.7,1.095-.654,1.043.172-.017-.016,1.073.7.99-.219,1-.49,2.175.46,4.959,3.528.46.944-2.967.427-.67,1.075-.7.753-.84.241-1.432,1.511-1.932,1.448-.4.867-3.506-.164-1.91.55-1.541,1.615-.635,3.109-1.13,2.436-1.149.873-1.2.137Zm-223.226-2.447-2.857.668-1.535-1.319-.2-.906.077-.523.251-.635-.531-.211-1.122-.109-.481.632-.061,1.448-.534.378-2.129-.829-.539-.742.763-1.511,1.314-1.36-.238-.279-.249-.829-.64-.107-1.9.205-1.549-.249-5.046-3.071-1.183-1.647-4.069-2.63-1.825-2.786-1.045-3.076.082-2.786.061-.542h57.547l.883,1.013-1.106,1.688-1.267.246-.681.785-.235,1.062-3.774,3.041-6.144,7.753-3.155,2.184-2.208,2.26-1.943-.057-2.436,1.921-6.185,1.68Zm239.6-16.146.7-1.393.849-.55,2.531.854.348,2.115-.194.725v0l-1.253.3Zm-8.908-2.917.1-1.207-.815-2.545h8.781l.033.205-1.291.205-.006.005-1.237,1.437-.733-.569-.391-.7-1.6,3.251-1.795.553Zm-384.25-1.278-.9-1.913,1.423-.378.67.235-.254.813-.238,1.689h0l-.148.088Zm-4.582-.725-1.333-1.683-.027-.066h2.175l.043.452.156.348.8.348-.09.211,0,.036-.867.386Z" transform="translate(-7058 -1153.096)" fill="#0b3d39"/>
    <path id="PT" d="M1277.418,912.641l2.061.943,1.893-.453,2.346,1.211,1.222.282-1.086.867-1.093,1.1-2.729-.257-2.307-1.044-.829-.8-.226-.72.748-1.107Zm-118.347-75.025-.062.348-.856-.136-1.083.1-.581-1,.529-.414,1.215-.1.581.446.258.759Zm-9.4-16.673.957.129,4.814-.282,1.281.205-.135,1.392-.912.561-2.833.376-4.459-.905-1.5-1.2-.216-.884.028-.414.943-.327,2.029,1.347Zm-37.718-11.7,1.243.769-1.89.167-.623.376-1.528-.543-1.845.083-1.156-1.044-.264-1.076.581-.668h1.629l3.854,1.932Zm-7.463-1.392-1.553.049-1.479-1.462,2.179-.769.637.466.473.532.278.7Zm13.029-.592-.717.233-4.024-1.479-1.434-.672-1.863-1.706,5.256,2.071,2.785,1.556Zm10.616-1.688-.3.184-3.133-.522-.891-.7-.348-1.312.526-.445,1.393-.264,2,.247,1.285.943v1.2l-.5.679ZM1066.805,790.8l-.669.936-1.152-.348-.38-.348.348-2,.919-.47.926.808.021,1.392Zm346.737-47.819.317.16.877-.042,1.559-.766,1.062-.64.369.264,3.074-.348.728.289.484.327,1.51.442,1.647.049,2.04-.62.895-.623.17-.7.042-.522.265-.348.463-.188.727.348,1.044.275,2.489.115.491-.383.846.115,1.114.484,1.285-.156.651.592.268.787.073,1.706-.1,1.72.254.637.87.167,1.392-.021,1.264.463.978.814.324.828.139.571-.48.32-.675,1.229-1.723,1.6-2.457,1.438-1.88,1.786-1.292,2.134-1.618.9-.494.484-.191.574,1.072,2.6.327,2.009.265,2.437-.17.7-.09,2.691-.247.783.062.641.394.7.178.658-.738.832-1.35.968-1,.849-.268.8.073.495,1.685,1.685.31.7-.226,1.66-.971,2.718-.926,1.653-.16.16-1.044.47h-5.079l-1.232.373.171.348,1.194,2.12,1.243,1.124.414.258.446,2.472,2.015,3.937,1.953.543.679.985-.122,1.392-.6,1.511-1.2,1.549-1.427,1.086-.929,1.079-.073,1.253-.3,1.587-.446,1.253-.115.846,3.571,5.3,1.991-.257.257.122-.348,1.26-.63,1.476-.752.282-1.706.452-1.615,1.9-1.309,2.287-.985,1.107-.9,2.711.111,1.173.435,1.807.923,4.7-1.326.209-5.141,3.06H1417.1l-2.976-1.347-5.253-.435-1.712-.4-2.137.881-1.653-.021-1.312,1.124-.944-.31,1.083-2.523,1.692-5-.07-3.063.4-2.67-.463-2.646-.849-1.657,1.156-4.3-.132-2.221-1.044-2.819,3.213.428-1-1.121-.978-.7-.946.157-.8-.042-2.736,1.093-1.372.327-.4-.191.15-1.74-.7-2.266,1.1-.6,1.274-.17,1.086-.968.671-1.082-.348-1.932.944-1.834,2.21-1.556-1.145.237-1.312.971-2.064,3.508-.672,1.775-1.761.574-1.577.285-.808-.188-.967-.446-.087-1.309.076-1.044.654-2.088.257-2.938.93-2.635-.07-.7-.264-1.044.828-1.044,1.045-.679,1.559-2.269,2.179-5.43,2.513-5.8-.205-.7-.533-.547.216-1.573,1.511-6.85.613-.9.7-2.015.16-3.261.282-2.249-.066-1.128-.226-1.361-.964-2.6-1.013-5.521-.08-1.848.835-.936-1.371-.136-.623-1.2.139-1.361,1.528-2.2,1.424-1.368,1.413-.891.78-.348,3.255-.93.856-.452.8.076.136.446.459.86.519.6.139.442-1.26,1.845-.171.63.654,1.187.1.376Z" transform="translate(-566.59 -335.517)" fill="#b1f2e9"/>
  </g>
</svg>
